<mxfile host="app.diagrams.net" agent="Mozilla/5.0 (Macintosh; Intel Mac OS X 10_15_7) AppleWebKit/537.36 (KHTML, like Gecko) Chrome/139.0.0.0 Safari/537.36" version="28.2.0" pages="3">
  <diagram name="DFD_Context_Level" id="GhdXQ25PFw1q_-uGo40b">
    <mxGraphModel grid="1" page="1" gridSize="10" guides="1" tooltips="1" connect="1" arrows="1" fold="1" pageScale="1" pageWidth="850" pageHeight="1100" math="0" shadow="0">
      <root>
        <mxCell id="0" />
        <mxCell id="1" parent="0" />
        <mxCell id="uwuAUtZKa5abWOMmEzVr-2" value="0" style="swimlane;childLayout=stackLayout;horizontal=1;startSize=30;horizontalStack=0;rounded=1;fontSize=14;fontStyle=0;strokeWidth=1;resizeParent=0;resizeLast=1;shadow=0;dashed=0;align=center;fillColor=#FFFFFF;" vertex="1" parent="1">
          <mxGeometry x="50" y="260" width="270" height="160" as="geometry" />
        </mxCell>
        <mxCell id="uwuAUtZKa5abWOMmEzVr-3" value="Приложение &quot;Stets Home&quot;" style="align=center;strokeColor=none;fillColor=none;spacingLeft=4;fontSize=12;verticalAlign=middle;resizable=0;rotatable=0;part=1;" vertex="1" parent="uwuAUtZKa5abWOMmEzVr-2">
          <mxGeometry y="30" width="270" height="130" as="geometry" />
        </mxCell>
        <mxCell id="s5gJnynhL-jRDSBaq8SN-2" style="edgeStyle=orthogonalEdgeStyle;rounded=0;orthogonalLoop=1;jettySize=auto;html=1;exitX=0.75;exitY=0;exitDx=0;exitDy=0;entryX=0.5;entryY=0;entryDx=0;entryDy=0;" edge="1" parent="1" source="uwuAUtZKa5abWOMmEzVr-4" target="uwuAUtZKa5abWOMmEzVr-2">
          <mxGeometry relative="1" as="geometry">
            <Array as="points">
              <mxPoint x="-442" y="210" />
              <mxPoint x="185" y="210" />
            </Array>
          </mxGeometry>
        </mxCell>
        <mxCell id="s5gJnynhL-jRDSBaq8SN-3" value="Создание сценария для управления устройствами" style="edgeLabel;html=1;align=center;verticalAlign=middle;resizable=0;points=[];" connectable="0" vertex="1" parent="s5gJnynhL-jRDSBaq8SN-2">
          <mxGeometry x="0.0129" y="-3" relative="1" as="geometry">
            <mxPoint as="offset" />
          </mxGeometry>
        </mxCell>
        <mxCell id="uwuAUtZKa5abWOMmEzVr-4" value="Пользователь" style="html=1;dashed=0;whitespace=wrap;" vertex="1" parent="1">
          <mxGeometry x="-570" y="270" width="170" height="130" as="geometry" />
        </mxCell>
        <mxCell id="uwuAUtZKa5abWOMmEzVr-5" value="Умное&lt;br&gt;&amp;nbsp;устройство" style="html=1;dashed=0;whitespace=wrap;" vertex="1" parent="1">
          <mxGeometry x="760" y="280" width="190" height="90" as="geometry" />
        </mxCell>
        <mxCell id="uwuAUtZKa5abWOMmEzVr-6" value="" style="endArrow=classic;html=1;rounded=0;entryX=0;entryY=0;entryDx=0;entryDy=0;exitX=1.009;exitY=0.156;exitDx=0;exitDy=0;exitPerimeter=0;" edge="1" parent="1" source="uwuAUtZKa5abWOMmEzVr-4" target="uwuAUtZKa5abWOMmEzVr-3">
          <mxGeometry width="50" height="50" relative="1" as="geometry">
            <mxPoint x="-50" y="378" as="sourcePoint" />
            <mxPoint x="-290" y="330" as="targetPoint" />
          </mxGeometry>
        </mxCell>
        <mxCell id="uwuAUtZKa5abWOMmEzVr-7" value="&lt;font style=&quot;font-size: 14px;&quot;&gt;Регистрация(Email, пароль)/Добавление пользователей&lt;/font&gt;" style="edgeLabel;html=1;align=center;verticalAlign=middle;resizable=0;points=[];" connectable="0" vertex="1" parent="uwuAUtZKa5abWOMmEzVr-6">
          <mxGeometry x="-0.2105" y="-2" relative="1" as="geometry">
            <mxPoint x="42" as="offset" />
          </mxGeometry>
        </mxCell>
        <mxCell id="uwuAUtZKa5abWOMmEzVr-8" value="" style="endArrow=classic;html=1;rounded=0;entryX=0;entryY=0;entryDx=0;entryDy=0;exitX=1.014;exitY=0.322;exitDx=0;exitDy=0;exitPerimeter=0;" edge="1" parent="1" source="uwuAUtZKa5abWOMmEzVr-4">
          <mxGeometry width="50" height="50" relative="1" as="geometry">
            <mxPoint x="-340" y="320" as="sourcePoint" />
            <mxPoint x="50" y="310" as="targetPoint" />
          </mxGeometry>
        </mxCell>
        <mxCell id="uwuAUtZKa5abWOMmEzVr-9" value="&lt;font style=&quot;font-size: 14px;&quot;&gt;Вход/Выход из аккаунта&lt;/font&gt;" style="edgeLabel;html=1;align=center;verticalAlign=middle;resizable=0;points=[];" connectable="0" vertex="1" parent="uwuAUtZKa5abWOMmEzVr-8">
          <mxGeometry x="-0.2105" y="-2" relative="1" as="geometry">
            <mxPoint x="31" as="offset" />
          </mxGeometry>
        </mxCell>
        <mxCell id="uwuAUtZKa5abWOMmEzVr-10" value="" style="endArrow=classic;html=1;rounded=0;entryX=0;entryY=0;entryDx=0;entryDy=0;exitX=1;exitY=0.464;exitDx=0;exitDy=0;exitPerimeter=0;" edge="1" parent="1" source="uwuAUtZKa5abWOMmEzVr-4">
          <mxGeometry width="50" height="50" relative="1" as="geometry">
            <mxPoint x="-340" y="340" as="sourcePoint" />
            <mxPoint x="50" y="330" as="targetPoint" />
          </mxGeometry>
        </mxCell>
        <mxCell id="uwuAUtZKa5abWOMmEzVr-11" value="&lt;font style=&quot;font-size: 14px;&quot;&gt;Добавление/Удаление/Управление устройствами&lt;/font&gt;" style="edgeLabel;html=1;align=center;verticalAlign=middle;resizable=0;points=[];" connectable="0" vertex="1" parent="uwuAUtZKa5abWOMmEzVr-10">
          <mxGeometry x="-0.2105" y="-2" relative="1" as="geometry">
            <mxPoint x="42" y="3" as="offset" />
          </mxGeometry>
        </mxCell>
        <mxCell id="uwuAUtZKa5abWOMmEzVr-12" value="" style="endArrow=classic;html=1;rounded=0;entryX=0;entryY=0;entryDx=0;entryDy=0;exitX=1;exitY=0.612;exitDx=0;exitDy=0;exitPerimeter=0;" edge="1" parent="1" source="uwuAUtZKa5abWOMmEzVr-4">
          <mxGeometry width="50" height="50" relative="1" as="geometry">
            <mxPoint x="-340" y="350" as="sourcePoint" />
            <mxPoint x="50" y="350" as="targetPoint" />
          </mxGeometry>
        </mxCell>
        <mxCell id="uwuAUtZKa5abWOMmEzVr-13" value="&lt;font style=&quot;font-size: 14px;&quot;&gt;Создание/Удаление/Управление комнатами&lt;/font&gt;" style="edgeLabel;html=1;align=center;verticalAlign=middle;resizable=0;points=[];" connectable="0" vertex="1" parent="uwuAUtZKa5abWOMmEzVr-12">
          <mxGeometry x="-0.2105" y="-2" relative="1" as="geometry">
            <mxPoint x="42" as="offset" />
          </mxGeometry>
        </mxCell>
        <mxCell id="uwuAUtZKa5abWOMmEzVr-16" value="" style="endArrow=classic;html=1;rounded=0;exitX=0.25;exitY=1;exitDx=0;exitDy=0;entryX=0.75;entryY=1;entryDx=0;entryDy=0;" edge="1" parent="1" source="uwuAUtZKa5abWOMmEzVr-3" target="uwuAUtZKa5abWOMmEzVr-4">
          <mxGeometry width="50" height="50" relative="1" as="geometry">
            <mxPoint x="112.5" y="510" as="sourcePoint" />
            <mxPoint x="-490" y="490" as="targetPoint" />
            <Array as="points">
              <mxPoint x="118" y="480" />
              <mxPoint x="-442" y="480" />
            </Array>
          </mxGeometry>
        </mxCell>
        <mxCell id="uwuAUtZKa5abWOMmEzVr-17" value="&lt;font style=&quot;font-size: 14px;&quot;&gt;Подтвержение операций&lt;/font&gt;" style="edgeLabel;html=1;align=center;verticalAlign=middle;resizable=0;points=[];" connectable="0" vertex="1" parent="uwuAUtZKa5abWOMmEzVr-16">
          <mxGeometry x="-0.2105" y="-2" relative="1" as="geometry">
            <mxPoint as="offset" />
          </mxGeometry>
        </mxCell>
        <mxCell id="uwuAUtZKa5abWOMmEzVr-18" value="" style="endArrow=classic;html=1;rounded=0;exitX=0.558;exitY=1.02;exitDx=0;exitDy=0;exitPerimeter=0;entryX=0.534;entryY=1.02;entryDx=0;entryDy=0;entryPerimeter=0;" edge="1" parent="1" source="uwuAUtZKa5abWOMmEzVr-3" target="uwuAUtZKa5abWOMmEzVr-4">
          <mxGeometry width="50" height="50" relative="1" as="geometry">
            <mxPoint x="90" y="520" as="sourcePoint" />
            <mxPoint x="-470" y="500" as="targetPoint" />
            <Array as="points">
              <mxPoint x="200" y="520" />
              <mxPoint x="-480" y="520" />
            </Array>
          </mxGeometry>
        </mxCell>
        <mxCell id="uwuAUtZKa5abWOMmEzVr-19" value="&lt;span style=&quot;font-size: 14px;&quot;&gt;Push/email уведомления&lt;/span&gt;" style="edgeLabel;html=1;align=center;verticalAlign=middle;resizable=0;points=[];" connectable="0" vertex="1" parent="uwuAUtZKa5abWOMmEzVr-18">
          <mxGeometry x="-0.2105" y="-2" relative="1" as="geometry">
            <mxPoint x="-54" as="offset" />
          </mxGeometry>
        </mxCell>
        <mxCell id="uwuAUtZKa5abWOMmEzVr-21" value="" style="endArrow=classic;html=1;rounded=0;exitX=1;exitY=0.25;exitDx=0;exitDy=0;entryX=0;entryY=0.444;entryDx=0;entryDy=0;entryPerimeter=0;" edge="1" parent="1" source="uwuAUtZKa5abWOMmEzVr-3" target="uwuAUtZKa5abWOMmEzVr-5">
          <mxGeometry width="50" height="50" relative="1" as="geometry">
            <mxPoint x="390" y="290" as="sourcePoint" />
            <mxPoint x="750" y="320" as="targetPoint" />
          </mxGeometry>
        </mxCell>
        <mxCell id="uwuAUtZKa5abWOMmEzVr-22" value="&lt;font style=&quot;font-size: 14px;&quot;&gt;Команды (вкл/выкл, режим энергосбережения)&lt;/font&gt;" style="edgeLabel;html=1;align=center;verticalAlign=middle;resizable=0;points=[];" connectable="0" vertex="1" parent="uwuAUtZKa5abWOMmEzVr-21">
          <mxGeometry x="-0.2105" y="-2" relative="1" as="geometry">
            <mxPoint x="46" y="-3" as="offset" />
          </mxGeometry>
        </mxCell>
        <mxCell id="uwuAUtZKa5abWOMmEzVr-23" value="" style="endArrow=classic;html=1;rounded=0;exitX=0;exitY=0.75;exitDx=0;exitDy=0;entryX=0.991;entryY=0.399;entryDx=0;entryDy=0;entryPerimeter=0;" edge="1" parent="1">
          <mxGeometry width="50" height="50" relative="1" as="geometry">
            <mxPoint x="760" y="337.81" as="sourcePoint" />
            <mxPoint x="317.57000000000016" y="342.1800000000001" as="targetPoint" />
          </mxGeometry>
        </mxCell>
        <mxCell id="uwuAUtZKa5abWOMmEzVr-24" value="&lt;font style=&quot;font-size: 14px;&quot;&gt;Текущий статус (вкл/выкл/энергосбережения)&lt;/font&gt;" style="edgeLabel;html=1;align=center;verticalAlign=middle;resizable=0;points=[];" connectable="0" vertex="1" parent="uwuAUtZKa5abWOMmEzVr-23">
          <mxGeometry x="-0.2105" y="-2" relative="1" as="geometry">
            <mxPoint x="-45" y="2" as="offset" />
          </mxGeometry>
        </mxCell>
        <mxCell id="s5gJnynhL-jRDSBaq8SN-4" style="edgeStyle=orthogonalEdgeStyle;rounded=0;orthogonalLoop=1;jettySize=auto;html=1;exitX=0.25;exitY=0;exitDx=0;exitDy=0;entryX=0.853;entryY=0;entryDx=0;entryDy=0;entryPerimeter=0;" edge="1" parent="1" source="uwuAUtZKa5abWOMmEzVr-2" target="uwuAUtZKa5abWOMmEzVr-4">
          <mxGeometry relative="1" as="geometry" />
        </mxCell>
        <mxCell id="s5gJnynhL-jRDSBaq8SN-5" value="Подтверждение Сохранение/Удаление/Изменене сценария&amp;nbsp;" style="edgeLabel;html=1;align=center;verticalAlign=middle;resizable=0;points=[];" connectable="0" vertex="1" parent="s5gJnynhL-jRDSBaq8SN-4">
          <mxGeometry x="-0.016" y="-1" relative="1" as="geometry">
            <mxPoint x="1" as="offset" />
          </mxGeometry>
        </mxCell>
      </root>
    </mxGraphModel>
  </diagram>
  <diagram id="45-5o15KL05rg7HsAn_H" name="DFD_Logical_Level">
    <mxGraphModel grid="1" page="1" gridSize="10" guides="1" tooltips="1" connect="1" arrows="1" fold="1" pageScale="1" pageWidth="850" pageHeight="1100" math="0" shadow="0">
      <root>
        <mxCell id="0" />
        <mxCell id="1" parent="0" />
        <mxCell id="Ugqlg0p3zHcgYc9lFQlx-1" value="3" style="swimlane;childLayout=stackLayout;horizontal=1;startSize=30;horizontalStack=0;rounded=1;fontSize=14;fontStyle=0;strokeWidth=1;resizeParent=0;resizeLast=1;shadow=0;dashed=0;align=center;fillColor=#FFFFFF;" vertex="1" parent="1">
          <mxGeometry x="850" y="-900" width="150" height="130" as="geometry" />
        </mxCell>
        <mxCell id="Ugqlg0p3zHcgYc9lFQlx-2" value="Управление&#xa; устройством" style="align=center;strokeColor=none;fillColor=none;spacingLeft=4;fontSize=12;verticalAlign=middle;resizable=0;rotatable=0;part=1;" vertex="1" parent="Ugqlg0p3zHcgYc9lFQlx-1">
          <mxGeometry y="30" width="150" height="100" as="geometry" />
        </mxCell>
        <mxCell id="Ugqlg0p3zHcgYc9lFQlx-3" value="2" style="swimlane;childLayout=stackLayout;horizontal=1;startSize=30;horizontalStack=0;rounded=1;fontSize=14;fontStyle=0;strokeWidth=1;resizeParent=0;resizeLast=1;shadow=0;dashed=0;align=center;fillColor=#FFFFFF;" vertex="1" parent="1">
          <mxGeometry x="60" y="-760" width="150" height="130" as="geometry" />
        </mxCell>
        <mxCell id="Ugqlg0p3zHcgYc9lFQlx-4" value="Управление&#xa;комнатой" style="align=center;strokeColor=none;fillColor=none;spacingLeft=4;fontSize=12;verticalAlign=middle;resizable=0;rotatable=0;part=1;" vertex="1" parent="Ugqlg0p3zHcgYc9lFQlx-3">
          <mxGeometry y="30" width="150" height="100" as="geometry" />
        </mxCell>
        <mxCell id="Ugqlg0p3zHcgYc9lFQlx-5" value="4" style="swimlane;childLayout=stackLayout;horizontal=1;startSize=30;horizontalStack=0;rounded=1;fontSize=14;fontStyle=0;strokeWidth=1;resizeParent=0;resizeLast=1;shadow=0;dashed=0;align=center;fillColor=#FFFFFF;" vertex="1" parent="1">
          <mxGeometry x="820" y="-70" width="150" height="130" as="geometry" />
        </mxCell>
        <mxCell id="Ugqlg0p3zHcgYc9lFQlx-6" value="Управление сценарием" style="align=center;strokeColor=none;fillColor=none;spacingLeft=4;fontSize=12;verticalAlign=middle;resizable=0;rotatable=0;part=1;" vertex="1" parent="Ugqlg0p3zHcgYc9lFQlx-5">
          <mxGeometry y="30" width="150" height="100" as="geometry" />
        </mxCell>
        <mxCell id="Ugqlg0p3zHcgYc9lFQlx-35" style="edgeStyle=orthogonalEdgeStyle;rounded=0;orthogonalLoop=1;jettySize=auto;html=1;exitX=0.967;exitY=0.023;exitDx=0;exitDy=0;entryX=0.145;entryY=0.988;entryDx=0;entryDy=0;entryPerimeter=0;exitPerimeter=0;" edge="1" parent="1" source="Ugqlg0p3zHcgYc9lFQlx-7" target="Ugqlg0p3zHcgYc9lFQlx-9">
          <mxGeometry relative="1" as="geometry">
            <mxPoint x="73" y="-220" as="targetPoint" />
            <Array as="points">
              <mxPoint x="-275" y="-57" />
              <mxPoint x="-275" y="-180" />
              <mxPoint x="69" y="-180" />
            </Array>
          </mxGeometry>
        </mxCell>
        <mxCell id="Ugqlg0p3zHcgYc9lFQlx-36" value="Подтверждение входа/выхода" style="edgeLabel;html=1;align=center;verticalAlign=middle;resizable=0;points=[];" connectable="0" vertex="1" parent="Ugqlg0p3zHcgYc9lFQlx-35">
          <mxGeometry x="0.1627" y="-2" relative="1" as="geometry">
            <mxPoint as="offset" />
          </mxGeometry>
        </mxCell>
        <mxCell id="2q4z-uAaUhQwx4QoBC5W-9" style="edgeStyle=orthogonalEdgeStyle;rounded=0;orthogonalLoop=1;jettySize=auto;html=1;exitX=1;exitY=0.5;exitDx=0;exitDy=0;entryX=0.25;entryY=1;entryDx=0;entryDy=0;" edge="1" parent="1" source="Ugqlg0p3zHcgYc9lFQlx-7" target="Ugqlg0p3zHcgYc9lFQlx-9">
          <mxGeometry relative="1" as="geometry" />
        </mxCell>
        <mxCell id="2q4z-uAaUhQwx4QoBC5W-10" value="Подтверждение восстановления пароля" style="edgeLabel;html=1;align=center;verticalAlign=middle;resizable=0;points=[];" connectable="0" vertex="1" parent="2q4z-uAaUhQwx4QoBC5W-9">
          <mxGeometry x="-0.3408" y="3" relative="1" as="geometry">
            <mxPoint as="offset" />
          </mxGeometry>
        </mxCell>
        <mxCell id="Ugqlg0p3zHcgYc9lFQlx-7" value="1" style="swimlane;childLayout=stackLayout;horizontal=1;startSize=30;horizontalStack=0;rounded=1;fontSize=14;fontStyle=0;strokeWidth=1;resizeParent=0;resizeLast=1;shadow=0;dashed=0;align=center;fillColor=#FFFFFF;" vertex="1" parent="1">
          <mxGeometry x="-425" y="-60" width="150" height="130" as="geometry" />
        </mxCell>
        <mxCell id="Ugqlg0p3zHcgYc9lFQlx-8" value="Управление учетной&#xa;записью" style="align=center;strokeColor=none;fillColor=none;spacingLeft=4;fontSize=12;verticalAlign=middle;resizable=0;rotatable=0;part=1;" vertex="1" parent="Ugqlg0p3zHcgYc9lFQlx-7">
          <mxGeometry y="30" width="150" height="100" as="geometry" />
        </mxCell>
        <mxCell id="Ugqlg0p3zHcgYc9lFQlx-19" style="edgeStyle=orthogonalEdgeStyle;rounded=0;orthogonalLoop=1;jettySize=auto;html=1;exitX=0;exitY=0.5;exitDx=0;exitDy=0;entryX=0.25;entryY=0;entryDx=0;entryDy=0;" edge="1" parent="1" source="Ugqlg0p3zHcgYc9lFQlx-9" target="Ugqlg0p3zHcgYc9lFQlx-7">
          <mxGeometry relative="1" as="geometry" />
        </mxCell>
        <mxCell id="Ugqlg0p3zHcgYc9lFQlx-20" value="Вход/Выход" style="edgeLabel;html=1;align=center;verticalAlign=middle;resizable=0;points=[];" connectable="0" vertex="1" parent="Ugqlg0p3zHcgYc9lFQlx-19">
          <mxGeometry x="-0.4089" relative="1" as="geometry">
            <mxPoint as="offset" />
          </mxGeometry>
        </mxCell>
        <mxCell id="Ugqlg0p3zHcgYc9lFQlx-23" style="edgeStyle=orthogonalEdgeStyle;rounded=0;orthogonalLoop=1;jettySize=auto;html=1;exitX=0;exitY=1;exitDx=0;exitDy=0;entryX=0.5;entryY=0;entryDx=0;entryDy=0;" edge="1" parent="1" source="Ugqlg0p3zHcgYc9lFQlx-9" target="Ugqlg0p3zHcgYc9lFQlx-7">
          <mxGeometry relative="1" as="geometry">
            <Array as="points">
              <mxPoint x="-350" y="-230" />
            </Array>
          </mxGeometry>
        </mxCell>
        <mxCell id="Ugqlg0p3zHcgYc9lFQlx-24" value="Добавление пользователя" style="edgeLabel;html=1;align=center;verticalAlign=middle;resizable=0;points=[];" connectable="0" vertex="1" parent="Ugqlg0p3zHcgYc9lFQlx-23">
          <mxGeometry x="0.014" relative="1" as="geometry">
            <mxPoint x="88" as="offset" />
          </mxGeometry>
        </mxCell>
        <mxCell id="2q4z-uAaUhQwx4QoBC5W-7" style="edgeStyle=orthogonalEdgeStyle;rounded=0;orthogonalLoop=1;jettySize=auto;html=1;exitX=0;exitY=0;exitDx=0;exitDy=0;entryX=0;entryY=0;entryDx=0;entryDy=0;" edge="1" parent="1" source="Ugqlg0p3zHcgYc9lFQlx-9" target="Ugqlg0p3zHcgYc9lFQlx-7">
          <mxGeometry relative="1" as="geometry" />
        </mxCell>
        <mxCell id="2q4z-uAaUhQwx4QoBC5W-8" value="Восстановление пароля" style="edgeLabel;html=1;align=center;verticalAlign=middle;resizable=0;points=[];" connectable="0" vertex="1" parent="2q4z-uAaUhQwx4QoBC5W-7">
          <mxGeometry x="-0.3898" y="-2" relative="1" as="geometry">
            <mxPoint as="offset" />
          </mxGeometry>
        </mxCell>
        <mxCell id="2q4z-uAaUhQwx4QoBC5W-11" style="edgeStyle=orthogonalEdgeStyle;rounded=0;orthogonalLoop=1;jettySize=auto;html=1;exitX=0.75;exitY=1;exitDx=0;exitDy=0;entryX=0.5;entryY=0;entryDx=0;entryDy=0;" edge="1" parent="1" source="Ugqlg0p3zHcgYc9lFQlx-9" target="Ugqlg0p3zHcgYc9lFQlx-5">
          <mxGeometry relative="1" as="geometry">
            <Array as="points">
              <mxPoint x="600" y="-230" />
              <mxPoint x="600" y="-150" />
              <mxPoint x="895" y="-150" />
            </Array>
          </mxGeometry>
        </mxCell>
        <mxCell id="2q4z-uAaUhQwx4QoBC5W-12" value="Создание/Удаление/Измения сценария" style="edgeLabel;html=1;align=center;verticalAlign=middle;resizable=0;points=[];" connectable="0" vertex="1" parent="2q4z-uAaUhQwx4QoBC5W-11">
          <mxGeometry x="0.0054" y="2" relative="1" as="geometry">
            <mxPoint x="58" as="offset" />
          </mxGeometry>
        </mxCell>
        <mxCell id="2q4z-uAaUhQwx4QoBC5W-17" style="edgeStyle=orthogonalEdgeStyle;rounded=0;orthogonalLoop=1;jettySize=auto;html=1;exitX=0;exitY=0;exitDx=0;exitDy=0;entryX=0.5;entryY=1;entryDx=0;entryDy=0;" edge="1" parent="1" source="Ugqlg0p3zHcgYc9lFQlx-9" target="2q4z-uAaUhQwx4QoBC5W-5">
          <mxGeometry relative="1" as="geometry" />
        </mxCell>
        <mxCell id="2q4z-uAaUhQwx4QoBC5W-18" value="Создание/Удаление/Изменение дома" style="edgeLabel;html=1;align=center;verticalAlign=middle;resizable=0;points=[];" connectable="0" vertex="1" parent="2q4z-uAaUhQwx4QoBC5W-17">
          <mxGeometry x="0.0028" y="-1" relative="1" as="geometry">
            <mxPoint as="offset" />
          </mxGeometry>
        </mxCell>
        <mxCell id="2q4z-uAaUhQwx4QoBC5W-34" style="edgeStyle=orthogonalEdgeStyle;rounded=0;orthogonalLoop=1;jettySize=auto;html=1;exitX=0.5;exitY=1;exitDx=0;exitDy=0;entryX=0;entryY=0.5;entryDx=0;entryDy=0;" edge="1" parent="1" source="Ugqlg0p3zHcgYc9lFQlx-9" target="Ugqlg0p3zHcgYc9lFQlx-6">
          <mxGeometry relative="1" as="geometry" />
        </mxCell>
        <mxCell id="2q4z-uAaUhQwx4QoBC5W-35" value="Запрос данных о сценарии" style="edgeLabel;html=1;align=center;verticalAlign=middle;resizable=0;points=[];" connectable="0" vertex="1" parent="2q4z-uAaUhQwx4QoBC5W-34">
          <mxGeometry x="0.4011" y="-2" relative="1" as="geometry">
            <mxPoint as="offset" />
          </mxGeometry>
        </mxCell>
        <mxCell id="Ugqlg0p3zHcgYc9lFQlx-9" value="Пользователь&lt;span style=&quot;color: rgba(0, 0, 0, 0); font-family: monospace; font-size: 0px; text-align: start;&quot;&gt;%3CmxGraphModel%3E%3Croot%3E%3CmxCell%20id%3D%220%22%2F%3E%3CmxCell%20id%3D%221%22%20parent%3D%220%22%2F%3E%3CmxCell%20id%3D%222%22%20value%3D%22D1%26amp%3Bnbsp%3B%20%26amp%3Bnbsp%3B%20%26amp%3Bnbsp%3B%20%D0%BC%D0%B5%D0%B4.%20%D0%BA%D0%B0%D1%80%D1%82%D0%B0%22%20style%3D%22html%3D1%3Bdashed%3D0%3BwhiteSpace%3Dwrap%3Bshape%3Dmxgraph.dfd.dataStoreID%3Balign%3Dleft%3BspacingLeft%3D3%3Bpoints%3D%5B%5B0%2C0%5D%2C%5B0.5%2C0%5D%2C%5B1%2C0%5D%2C%5B0%2C0.5%5D%2C%5B1%2C0.5%5D%2C%5B0%2C1%5D%2C%5B0.5%2C1%5D%2C%5B1%2C1%5D%5D%3B%22%20vertex%3D%221%22%20parent%3D%221%22%3E%3CmxGeometry%20x%3D%2230%22%20y%3D%22-210%22%20width%3D%22180%22%20height%3D%2230%22%20as%3D%22geometry%22%2F%3E%3C%2FmxCell%3E%3C%2Froot%3E%3C%2FmxGraphModel%3E&lt;/span&gt;" style="html=1;fontSize=11;" vertex="1" parent="1">
          <mxGeometry x="-90" y="-310" width="1100" height="80" as="geometry" />
        </mxCell>
        <mxCell id="Ugqlg0p3zHcgYc9lFQlx-29" style="edgeStyle=orthogonalEdgeStyle;rounded=0;orthogonalLoop=1;jettySize=auto;html=1;exitX=0.5;exitY=0;exitDx=0;exitDy=0;entryX=0;entryY=0.75;entryDx=0;entryDy=0;" edge="1" parent="1" source="Ugqlg0p3zHcgYc9lFQlx-10" target="Ugqlg0p3zHcgYc9lFQlx-8">
          <mxGeometry relative="1" as="geometry" />
        </mxCell>
        <mxCell id="Ugqlg0p3zHcgYc9lFQlx-30" value="Отправка данных" style="edgeLabel;html=1;align=center;verticalAlign=middle;resizable=0;points=[];" connectable="0" vertex="1" parent="Ugqlg0p3zHcgYc9lFQlx-29">
          <mxGeometry x="0.4938" relative="1" as="geometry">
            <mxPoint as="offset" />
          </mxGeometry>
        </mxCell>
        <mxCell id="Ugqlg0p3zHcgYc9lFQlx-10" value="D1.&amp;nbsp; &amp;nbsp; база пользователей" style="html=1;dashed=0;whiteSpace=wrap;shape=mxgraph.dfd.dataStoreID;align=left;spacingLeft=3;points=[[0,0],[0.5,0],[1,0],[0,0.5],[1,0.5],[0,1],[0.5,1],[1,1]];" vertex="1" parent="1">
          <mxGeometry x="-680" y="230" width="180" height="30" as="geometry" />
        </mxCell>
        <mxCell id="y-fFOQFP8YGV1HtrMaNp-1" style="edgeStyle=orthogonalEdgeStyle;rounded=0;orthogonalLoop=1;jettySize=auto;html=1;exitX=1;exitY=1;exitDx=0;exitDy=0;entryX=0.5;entryY=1;entryDx=0;entryDy=0;" edge="1" parent="1" source="Ugqlg0p3zHcgYc9lFQlx-11" target="Ugqlg0p3zHcgYc9lFQlx-2">
          <mxGeometry relative="1" as="geometry">
            <mxPoint x="1170" y="-605" as="targetPoint" />
            <Array as="points">
              <mxPoint x="740" y="-480" />
              <mxPoint x="925" y="-480" />
            </Array>
          </mxGeometry>
        </mxCell>
        <mxCell id="y-fFOQFP8YGV1HtrMaNp-2" value="Статус устройства (вкл/вык/энерго. режим)" style="edgeLabel;html=1;align=center;verticalAlign=middle;resizable=0;points=[];rotation=-90;" connectable="0" vertex="1" parent="y-fFOQFP8YGV1HtrMaNp-1">
          <mxGeometry x="0.4081" y="2" relative="1" as="geometry">
            <mxPoint as="offset" />
          </mxGeometry>
        </mxCell>
        <mxCell id="R25WH0Tf87WVWhgW9tzn-5" style="edgeStyle=orthogonalEdgeStyle;rounded=0;orthogonalLoop=1;jettySize=auto;html=1;exitX=1;exitY=0.25;exitDx=0;exitDy=0;entryX=0;entryY=1;entryDx=0;entryDy=0;" edge="1" parent="1" source="Ugqlg0p3zHcgYc9lFQlx-11" target="Ugqlg0p3zHcgYc9lFQlx-2">
          <mxGeometry relative="1" as="geometry" />
        </mxCell>
        <mxCell id="R25WH0Tf87WVWhgW9tzn-6" value="Подтверждает выполнения команты" style="edgeLabel;html=1;align=center;verticalAlign=middle;resizable=0;points=[];rotation=-90;" connectable="0" vertex="1" parent="R25WH0Tf87WVWhgW9tzn-5">
          <mxGeometry x="0.023" y="1" relative="1" as="geometry">
            <mxPoint x="1" y="-51" as="offset" />
          </mxGeometry>
        </mxCell>
        <mxCell id="Ugqlg0p3zHcgYc9lFQlx-11" value="Умные устройства" style="html=1;fontSize=11;" vertex="1" parent="1">
          <mxGeometry x="540" y="-550" width="200" height="80" as="geometry" />
        </mxCell>
        <mxCell id="y-fFOQFP8YGV1HtrMaNp-12" style="edgeStyle=orthogonalEdgeStyle;rounded=0;orthogonalLoop=1;jettySize=auto;html=1;exitX=0.5;exitY=1;exitDx=0;exitDy=0;entryX=0.5;entryY=0;entryDx=0;entryDy=0;" edge="1" parent="1" source="Ugqlg0p3zHcgYc9lFQlx-12" target="Ugqlg0p3zHcgYc9lFQlx-1">
          <mxGeometry relative="1" as="geometry" />
        </mxCell>
        <mxCell id="y-fFOQFP8YGV1HtrMaNp-13" value="получение данных об устройстве" style="edgeLabel;html=1;align=center;verticalAlign=middle;resizable=0;points=[];rotation=-90;" connectable="0" vertex="1" parent="y-fFOQFP8YGV1HtrMaNp-12">
          <mxGeometry x="0.219" y="-2" relative="1" as="geometry">
            <mxPoint x="-3" y="-25" as="offset" />
          </mxGeometry>
        </mxCell>
        <mxCell id="y-fFOQFP8YGV1HtrMaNp-16" style="edgeStyle=orthogonalEdgeStyle;rounded=0;orthogonalLoop=1;jettySize=auto;html=1;exitX=1;exitY=1;exitDx=0;exitDy=0;entryX=0.75;entryY=0;entryDx=0;entryDy=0;" edge="1" parent="1" source="Ugqlg0p3zHcgYc9lFQlx-12" target="Ugqlg0p3zHcgYc9lFQlx-1">
          <mxGeometry relative="1" as="geometry">
            <Array as="points">
              <mxPoint x="963" y="-1140" />
              <mxPoint x="963" y="-1020" />
            </Array>
          </mxGeometry>
        </mxCell>
        <mxCell id="y-fFOQFP8YGV1HtrMaNp-17" value="Подтверждение сохранения данных об устройстве" style="edgeLabel;html=1;align=center;verticalAlign=middle;resizable=0;points=[];rotation=-90;" connectable="0" vertex="1" parent="y-fFOQFP8YGV1HtrMaNp-16">
          <mxGeometry x="0.1999" y="-1" relative="1" as="geometry">
            <mxPoint x="-2" y="-25" as="offset" />
          </mxGeometry>
        </mxCell>
        <mxCell id="Ugqlg0p3zHcgYc9lFQlx-12" value="D2.&amp;nbsp; &amp;nbsp; база устройств" style="html=1;dashed=0;whiteSpace=wrap;shape=mxgraph.dfd.dataStoreID;align=left;spacingLeft=3;points=[[0,0],[0.5,0],[1,0],[0,0.5],[1,0.5],[0,1],[0.5,1],[1,1]];" vertex="1" parent="1">
          <mxGeometry x="820" y="-1280" width="180" height="30" as="geometry" />
        </mxCell>
        <mxCell id="Ugqlg0p3zHcgYc9lFQlx-13" value="D3.&amp;nbsp; &amp;nbsp; база комнат" style="html=1;dashed=0;whiteSpace=wrap;shape=mxgraph.dfd.dataStoreID;align=left;spacingLeft=3;points=[[0,0],[0.5,0],[1,0],[0,0.5],[1,0.5],[0,1],[0.5,1],[1,1]];" vertex="1" parent="1">
          <mxGeometry x="30" y="-1010" width="180" height="30" as="geometry" />
        </mxCell>
        <mxCell id="Ugqlg0p3zHcgYc9lFQlx-16" style="edgeStyle=orthogonalEdgeStyle;rounded=0;orthogonalLoop=1;jettySize=auto;html=1;exitX=0;exitY=0.25;exitDx=0;exitDy=0;entryX=0.113;entryY=-0.031;entryDx=0;entryDy=0;entryPerimeter=0;" edge="1" parent="1" source="Ugqlg0p3zHcgYc9lFQlx-9" target="Ugqlg0p3zHcgYc9lFQlx-7">
          <mxGeometry relative="1" as="geometry" />
        </mxCell>
        <mxCell id="Ugqlg0p3zHcgYc9lFQlx-18" value="Регистрация" style="edgeLabel;html=1;align=center;verticalAlign=middle;resizable=0;points=[];" connectable="0" vertex="1" parent="Ugqlg0p3zHcgYc9lFQlx-16">
          <mxGeometry x="-0.4457" y="-1" relative="1" as="geometry">
            <mxPoint as="offset" />
          </mxGeometry>
        </mxCell>
        <mxCell id="Ugqlg0p3zHcgYc9lFQlx-25" style="edgeStyle=orthogonalEdgeStyle;rounded=0;orthogonalLoop=1;jettySize=auto;html=1;exitX=0;exitY=0.25;exitDx=0;exitDy=0;entryX=0.139;entryY=-0.067;entryDx=0;entryDy=0;entryPerimeter=0;" edge="1" parent="1" source="Ugqlg0p3zHcgYc9lFQlx-8" target="Ugqlg0p3zHcgYc9lFQlx-10">
          <mxGeometry relative="1" as="geometry" />
        </mxCell>
        <mxCell id="Ugqlg0p3zHcgYc9lFQlx-26" value="Проверка данных" style="edgeLabel;html=1;align=center;verticalAlign=middle;resizable=0;points=[];" connectable="0" vertex="1" parent="Ugqlg0p3zHcgYc9lFQlx-25">
          <mxGeometry x="-0.4688" y="3" relative="1" as="geometry">
            <mxPoint as="offset" />
          </mxGeometry>
        </mxCell>
        <mxCell id="Ugqlg0p3zHcgYc9lFQlx-27" style="edgeStyle=orthogonalEdgeStyle;rounded=0;orthogonalLoop=1;jettySize=auto;html=1;exitX=0;exitY=0.5;exitDx=0;exitDy=0;entryX=0.333;entryY=0;entryDx=0;entryDy=0;entryPerimeter=0;" edge="1" parent="1" source="Ugqlg0p3zHcgYc9lFQlx-8" target="Ugqlg0p3zHcgYc9lFQlx-10">
          <mxGeometry relative="1" as="geometry" />
        </mxCell>
        <mxCell id="Ugqlg0p3zHcgYc9lFQlx-28" value="Сохранение данных" style="edgeLabel;html=1;align=center;verticalAlign=middle;resizable=0;points=[];" connectable="0" vertex="1" parent="Ugqlg0p3zHcgYc9lFQlx-27">
          <mxGeometry x="-0.4668" y="2" relative="1" as="geometry">
            <mxPoint as="offset" />
          </mxGeometry>
        </mxCell>
        <mxCell id="Ugqlg0p3zHcgYc9lFQlx-31" value="" style="endArrow=classic;html=1;rounded=0;exitX=0.661;exitY=0;exitDx=0;exitDy=0;exitPerimeter=0;entryX=0.25;entryY=1;entryDx=0;entryDy=0;" edge="1" parent="1" source="Ugqlg0p3zHcgYc9lFQlx-10" target="Ugqlg0p3zHcgYc9lFQlx-8">
          <mxGeometry width="50" height="50" relative="1" as="geometry">
            <mxPoint x="400" y="130" as="sourcePoint" />
            <mxPoint x="450" y="80" as="targetPoint" />
            <Array as="points">
              <mxPoint x="-560" y="120" />
              <mxPoint x="-470" y="120" />
              <mxPoint x="-387" y="120" />
            </Array>
          </mxGeometry>
        </mxCell>
        <mxCell id="Ugqlg0p3zHcgYc9lFQlx-32" value="Подтверждение данных" style="edgeLabel;html=1;align=center;verticalAlign=middle;resizable=0;points=[];" connectable="0" vertex="1" parent="Ugqlg0p3zHcgYc9lFQlx-31">
          <mxGeometry x="0.1652" y="-7" relative="1" as="geometry">
            <mxPoint y="-7" as="offset" />
          </mxGeometry>
        </mxCell>
        <mxCell id="Ugqlg0p3zHcgYc9lFQlx-33" style="edgeStyle=orthogonalEdgeStyle;rounded=0;orthogonalLoop=1;jettySize=auto;html=1;exitX=0.75;exitY=0;exitDx=0;exitDy=0;entryX=0.064;entryY=0.988;entryDx=0;entryDy=0;entryPerimeter=0;" edge="1" parent="1" source="Ugqlg0p3zHcgYc9lFQlx-7" target="Ugqlg0p3zHcgYc9lFQlx-9">
          <mxGeometry relative="1" as="geometry">
            <Array as="points">
              <mxPoint x="-312" y="-200" />
              <mxPoint x="-18" y="-200" />
              <mxPoint x="-18" y="-220" />
              <mxPoint x="-20" y="-220" />
            </Array>
          </mxGeometry>
        </mxCell>
        <mxCell id="Ugqlg0p3zHcgYc9lFQlx-34" value="Подтверждение регистрации" style="edgeLabel;html=1;align=center;verticalAlign=middle;resizable=0;points=[];" connectable="0" vertex="1" parent="Ugqlg0p3zHcgYc9lFQlx-33">
          <mxGeometry x="0.0083" y="1" relative="1" as="geometry">
            <mxPoint x="45" as="offset" />
          </mxGeometry>
        </mxCell>
        <mxCell id="Ugqlg0p3zHcgYc9lFQlx-38" style="edgeStyle=orthogonalEdgeStyle;rounded=0;orthogonalLoop=1;jettySize=auto;html=1;exitX=1;exitY=0.25;exitDx=0;exitDy=0;entryX=0.227;entryY=1.013;entryDx=0;entryDy=0;entryPerimeter=0;" edge="1" parent="1" source="Ugqlg0p3zHcgYc9lFQlx-7" target="Ugqlg0p3zHcgYc9lFQlx-9">
          <mxGeometry relative="1" as="geometry">
            <mxPoint x="160" y="-220" as="targetPoint" />
            <Array as="points">
              <mxPoint x="-210" y="-27" />
              <mxPoint x="-210" y="-140" />
              <mxPoint x="160" y="-140" />
            </Array>
          </mxGeometry>
        </mxCell>
        <mxCell id="Ugqlg0p3zHcgYc9lFQlx-39" value="Подтверждение добавления пользователя" style="edgeLabel;html=1;align=center;verticalAlign=middle;resizable=0;points=[];" connectable="0" vertex="1" parent="Ugqlg0p3zHcgYc9lFQlx-38">
          <mxGeometry x="0.0118" y="3" relative="1" as="geometry">
            <mxPoint x="14" as="offset" />
          </mxGeometry>
        </mxCell>
        <mxCell id="Ugqlg0p3zHcgYc9lFQlx-40" value="" style="endArrow=classic;html=1;rounded=0;entryX=0.25;entryY=1;entryDx=0;entryDy=0;exitX=0.172;exitY=-0.037;exitDx=0;exitDy=0;exitPerimeter=0;" edge="1" parent="1" source="Ugqlg0p3zHcgYc9lFQlx-9" target="Ugqlg0p3zHcgYc9lFQlx-4">
          <mxGeometry width="50" height="50" relative="1" as="geometry">
            <mxPoint x="560" y="-240" as="sourcePoint" />
            <mxPoint x="610" y="-290" as="targetPoint" />
          </mxGeometry>
        </mxCell>
        <mxCell id="Ugqlg0p3zHcgYc9lFQlx-41" value="Создание/Удаление комнаты" style="edgeLabel;html=1;align=center;verticalAlign=middle;resizable=0;points=[];rotation=-90;" connectable="0" vertex="1" parent="Ugqlg0p3zHcgYc9lFQlx-40">
          <mxGeometry x="0.0159" relative="1" as="geometry">
            <mxPoint as="offset" />
          </mxGeometry>
        </mxCell>
        <mxCell id="Ugqlg0p3zHcgYc9lFQlx-44" value="" style="endArrow=classic;html=1;rounded=0;entryX=0.25;entryY=1;entryDx=0;entryDy=0;exitX=0.172;exitY=-0.037;exitDx=0;exitDy=0;exitPerimeter=0;" edge="1" parent="1">
          <mxGeometry width="50" height="50" relative="1" as="geometry">
            <mxPoint x="171" y="-313" as="sourcePoint" />
            <mxPoint x="170" y="-630" as="targetPoint" />
          </mxGeometry>
        </mxCell>
        <mxCell id="Ugqlg0p3zHcgYc9lFQlx-45" value="Управление комнатой" style="edgeLabel;html=1;align=center;verticalAlign=middle;resizable=0;points=[];rotation=-90;" connectable="0" vertex="1" parent="Ugqlg0p3zHcgYc9lFQlx-44">
          <mxGeometry x="0.0159" relative="1" as="geometry">
            <mxPoint as="offset" />
          </mxGeometry>
        </mxCell>
        <mxCell id="Ugqlg0p3zHcgYc9lFQlx-48" style="edgeStyle=orthogonalEdgeStyle;rounded=0;orthogonalLoop=1;jettySize=auto;html=1;exitX=0;exitY=0.25;exitDx=0;exitDy=0;entryX=0.5;entryY=0;entryDx=0;entryDy=0;" edge="1" parent="1" source="Ugqlg0p3zHcgYc9lFQlx-4" target="Ugqlg0p3zHcgYc9lFQlx-13">
          <mxGeometry relative="1" as="geometry">
            <Array as="points">
              <mxPoint x="-130" y="-705" />
              <mxPoint x="-130" y="-1070" />
              <mxPoint x="120" y="-1070" />
            </Array>
          </mxGeometry>
        </mxCell>
        <mxCell id="Ugqlg0p3zHcgYc9lFQlx-49" value="Сохранение конфигурации" style="edgeLabel;html=1;align=center;verticalAlign=middle;resizable=0;points=[];rotation=-90;" connectable="0" vertex="1" parent="Ugqlg0p3zHcgYc9lFQlx-48">
          <mxGeometry x="-0.2896" y="-4" relative="1" as="geometry">
            <mxPoint x="-4" y="-78" as="offset" />
          </mxGeometry>
        </mxCell>
        <mxCell id="Ugqlg0p3zHcgYc9lFQlx-50" value="" style="endArrow=classic;html=1;rounded=0;exitX=0.333;exitY=0;exitDx=0;exitDy=0;entryX=0.02;entryY=0.192;entryDx=0;entryDy=0;entryPerimeter=0;exitPerimeter=0;" edge="1" parent="1" source="Ugqlg0p3zHcgYc9lFQlx-13" target="Ugqlg0p3zHcgYc9lFQlx-3">
          <mxGeometry width="50" height="50" relative="1" as="geometry">
            <mxPoint x="-425" y="-550" as="sourcePoint" />
            <mxPoint x="-420" y="-750" as="targetPoint" />
            <Array as="points">
              <mxPoint x="90" y="-1030" />
              <mxPoint x="-80" y="-1030" />
              <mxPoint x="-80" y="-735" />
            </Array>
          </mxGeometry>
        </mxCell>
        <mxCell id="Ugqlg0p3zHcgYc9lFQlx-51" value="Получение данных комнаты" style="edgeLabel;html=1;align=center;verticalAlign=middle;resizable=0;points=[];rotation=-90;" connectable="0" vertex="1" parent="Ugqlg0p3zHcgYc9lFQlx-50">
          <mxGeometry x="0.2743" y="2" relative="1" as="geometry">
            <mxPoint x="-2" y="-107" as="offset" />
          </mxGeometry>
        </mxCell>
        <mxCell id="Ugqlg0p3zHcgYc9lFQlx-52" style="edgeStyle=orthogonalEdgeStyle;rounded=0;orthogonalLoop=1;jettySize=auto;html=1;entryX=0.319;entryY=-0.012;entryDx=0;entryDy=0;entryPerimeter=0;" edge="1" parent="1" target="Ugqlg0p3zHcgYc9lFQlx-9">
          <mxGeometry relative="1" as="geometry">
            <mxPoint x="210" y="-660" as="sourcePoint" />
            <Array as="points">
              <mxPoint x="210" y="-660" />
              <mxPoint x="260" y="-660" />
              <mxPoint x="260" y="-470" />
              <mxPoint x="261" y="-470" />
            </Array>
          </mxGeometry>
        </mxCell>
        <mxCell id="Ugqlg0p3zHcgYc9lFQlx-55" value="Подтверждение создания/удаления комнты" style="edgeLabel;html=1;align=center;verticalAlign=middle;resizable=0;points=[];rotation=-90;" connectable="0" vertex="1" parent="Ugqlg0p3zHcgYc9lFQlx-52">
          <mxGeometry x="0.2248" y="1" relative="1" as="geometry">
            <mxPoint x="-1" y="-36" as="offset" />
          </mxGeometry>
        </mxCell>
        <mxCell id="Ugqlg0p3zHcgYc9lFQlx-54" style="edgeStyle=orthogonalEdgeStyle;rounded=0;orthogonalLoop=1;jettySize=auto;html=1;exitX=1;exitY=0.5;exitDx=0;exitDy=0;" edge="1" parent="1">
          <mxGeometry relative="1" as="geometry">
            <mxPoint x="210" y="-710" as="sourcePoint" />
            <mxPoint x="323" y="-309" as="targetPoint" />
            <Array as="points">
              <mxPoint x="320" y="-710" />
              <mxPoint x="320" y="-342" />
              <mxPoint x="323" y="-342" />
            </Array>
          </mxGeometry>
        </mxCell>
        <mxCell id="Ugqlg0p3zHcgYc9lFQlx-57" value="Подтверждение сохранения конфигурации" style="edgeLabel;html=1;align=center;verticalAlign=middle;resizable=0;points=[];rotation=-90;" connectable="0" vertex="1" parent="Ugqlg0p3zHcgYc9lFQlx-54">
          <mxGeometry x="0.3512" y="3" relative="1" as="geometry">
            <mxPoint x="-3" y="-60" as="offset" />
          </mxGeometry>
        </mxCell>
        <mxCell id="Ugqlg0p3zHcgYc9lFQlx-58" style="edgeStyle=orthogonalEdgeStyle;rounded=0;orthogonalLoop=1;jettySize=auto;html=1;exitX=0.25;exitY=1;exitDx=0;exitDy=0;entryX=1.004;entryY=0.614;entryDx=0;entryDy=0;entryPerimeter=0;" edge="1" parent="1" source="Ugqlg0p3zHcgYc9lFQlx-2" target="Ugqlg0p3zHcgYc9lFQlx-11">
          <mxGeometry relative="1" as="geometry">
            <Array as="points">
              <mxPoint x="887" y="-500" />
              <mxPoint x="890" y="-500" />
            </Array>
          </mxGeometry>
        </mxCell>
        <mxCell id="Ugqlg0p3zHcgYc9lFQlx-59" value="Команды (вкл/выкл/энергосбер. режим)" style="edgeLabel;html=1;align=center;verticalAlign=middle;resizable=0;points=[];rotation=-90;" connectable="0" vertex="1" parent="Ugqlg0p3zHcgYc9lFQlx-58">
          <mxGeometry x="-0.3795" y="-1" relative="1" as="geometry">
            <mxPoint as="offset" />
          </mxGeometry>
        </mxCell>
        <mxCell id="y-fFOQFP8YGV1HtrMaNp-3" style="edgeStyle=orthogonalEdgeStyle;rounded=0;orthogonalLoop=1;jettySize=auto;html=1;exitX=1;exitY=0;exitDx=0;exitDy=0;entryX=0.003;entryY=0.43;entryDx=0;entryDy=0;entryPerimeter=0;" edge="1" parent="1" source="Ugqlg0p3zHcgYc9lFQlx-4" target="Ugqlg0p3zHcgYc9lFQlx-2">
          <mxGeometry relative="1" as="geometry" />
        </mxCell>
        <mxCell id="y-fFOQFP8YGV1HtrMaNp-4" value="Запрос данных об устройстве" style="edgeLabel;html=1;align=center;verticalAlign=middle;resizable=0;points=[];" connectable="0" vertex="1" parent="y-fFOQFP8YGV1HtrMaNp-3">
          <mxGeometry x="0.1345" y="-1" relative="1" as="geometry">
            <mxPoint as="offset" />
          </mxGeometry>
        </mxCell>
        <mxCell id="y-fFOQFP8YGV1HtrMaNp-5" value="" style="endArrow=classic;html=1;rounded=0;entryX=0.389;entryY=1;entryDx=0;entryDy=0;entryPerimeter=0;exitX=0.333;exitY=0;exitDx=0;exitDy=0;exitPerimeter=0;" edge="1" parent="1" source="Ugqlg0p3zHcgYc9lFQlx-1" target="Ugqlg0p3zHcgYc9lFQlx-12">
          <mxGeometry width="50" height="50" relative="1" as="geometry">
            <mxPoint x="970" y="-910" as="sourcePoint" />
            <mxPoint x="580" y="-850" as="targetPoint" />
          </mxGeometry>
        </mxCell>
        <mxCell id="y-fFOQFP8YGV1HtrMaNp-6" value="проверка дубликата" style="edgeLabel;html=1;align=center;verticalAlign=middle;resizable=0;points=[];rotation=-91;" connectable="0" vertex="1" parent="y-fFOQFP8YGV1HtrMaNp-5">
          <mxGeometry x="-0.188" y="2" relative="1" as="geometry">
            <mxPoint as="offset" />
          </mxGeometry>
        </mxCell>
        <mxCell id="y-fFOQFP8YGV1HtrMaNp-8" style="edgeStyle=orthogonalEdgeStyle;rounded=0;orthogonalLoop=1;jettySize=auto;html=1;exitX=0;exitY=0.75;exitDx=0;exitDy=0;entryX=1.014;entryY=0.065;entryDx=0;entryDy=0;entryPerimeter=0;" edge="1" parent="1" source="Ugqlg0p3zHcgYc9lFQlx-2" target="Ugqlg0p3zHcgYc9lFQlx-4">
          <mxGeometry relative="1" as="geometry" />
        </mxCell>
        <mxCell id="y-fFOQFP8YGV1HtrMaNp-9" value="Получение данных об устройстве" style="edgeLabel;html=1;align=center;verticalAlign=middle;resizable=0;points=[];" connectable="0" vertex="1" parent="y-fFOQFP8YGV1HtrMaNp-8">
          <mxGeometry x="-0.0966" relative="1" as="geometry">
            <mxPoint as="offset" />
          </mxGeometry>
        </mxCell>
        <mxCell id="y-fFOQFP8YGV1HtrMaNp-10" style="edgeStyle=orthogonalEdgeStyle;rounded=0;orthogonalLoop=1;jettySize=auto;html=1;exitX=0.25;exitY=0;exitDx=0;exitDy=0;entryX=0.287;entryY=1.086;entryDx=0;entryDy=0;entryPerimeter=0;" edge="1" parent="1" source="Ugqlg0p3zHcgYc9lFQlx-1" target="Ugqlg0p3zHcgYc9lFQlx-12">
          <mxGeometry relative="1" as="geometry" />
        </mxCell>
        <mxCell id="y-fFOQFP8YGV1HtrMaNp-11" value="запрос данных об устройстве" style="edgeLabel;html=1;align=center;verticalAlign=middle;resizable=0;points=[];rotation=-90;" connectable="0" vertex="1" parent="y-fFOQFP8YGV1HtrMaNp-10">
          <mxGeometry x="0.0131" relative="1" as="geometry">
            <mxPoint as="offset" />
          </mxGeometry>
        </mxCell>
        <mxCell id="y-fFOQFP8YGV1HtrMaNp-14" style="edgeStyle=orthogonalEdgeStyle;rounded=0;orthogonalLoop=1;jettySize=auto;html=1;exitX=0;exitY=0;exitDx=0;exitDy=0;entryX=0.114;entryY=1.114;entryDx=0;entryDy=0;entryPerimeter=0;" edge="1" parent="1" source="Ugqlg0p3zHcgYc9lFQlx-1" target="Ugqlg0p3zHcgYc9lFQlx-12">
          <mxGeometry relative="1" as="geometry" />
        </mxCell>
        <mxCell id="y-fFOQFP8YGV1HtrMaNp-15" value="Сохранение данных об устройстве" style="edgeLabel;html=1;align=center;verticalAlign=middle;resizable=0;points=[];rotation=-90;" connectable="0" vertex="1" parent="y-fFOQFP8YGV1HtrMaNp-14">
          <mxGeometry x="-0.1634" relative="1" as="geometry">
            <mxPoint as="offset" />
          </mxGeometry>
        </mxCell>
        <mxCell id="y-fFOQFP8YGV1HtrMaNp-18" style="edgeStyle=orthogonalEdgeStyle;rounded=0;orthogonalLoop=1;jettySize=auto;html=1;exitX=1;exitY=0;exitDx=0;exitDy=0;entryX=0.667;entryY=1;entryDx=0;entryDy=0;entryPerimeter=0;" edge="1" parent="1" source="Ugqlg0p3zHcgYc9lFQlx-9" target="Ugqlg0p3zHcgYc9lFQlx-2">
          <mxGeometry relative="1" as="geometry">
            <Array as="points">
              <mxPoint x="970" y="-310" />
              <mxPoint x="970" y="-770" />
            </Array>
          </mxGeometry>
        </mxCell>
        <mxCell id="y-fFOQFP8YGV1HtrMaNp-19" value="Добавление/Удаление устройства" style="edgeLabel;html=1;align=center;verticalAlign=middle;resizable=0;points=[];rotation=-90;" connectable="0" vertex="1" parent="y-fFOQFP8YGV1HtrMaNp-18">
          <mxGeometry x="-0.5466" y="5" relative="1" as="geometry">
            <mxPoint y="-152" as="offset" />
          </mxGeometry>
        </mxCell>
        <mxCell id="y-fFOQFP8YGV1HtrMaNp-22" style="edgeStyle=orthogonalEdgeStyle;rounded=0;orthogonalLoop=1;jettySize=auto;html=1;exitX=1;exitY=0.75;exitDx=0;exitDy=0;entryX=1.002;entryY=0.13;entryDx=0;entryDy=0;entryPerimeter=0;" edge="1" parent="1" source="Ugqlg0p3zHcgYc9lFQlx-2" target="Ugqlg0p3zHcgYc9lFQlx-9">
          <mxGeometry relative="1" as="geometry">
            <Array as="points">
              <mxPoint x="1020" y="-795" />
              <mxPoint x="1020" y="-340" />
              <mxPoint x="1012" y="-340" />
            </Array>
          </mxGeometry>
        </mxCell>
        <mxCell id="y-fFOQFP8YGV1HtrMaNp-23" value="Подтверждение Добавления/Удаления устройства" style="edgeLabel;html=1;align=center;verticalAlign=middle;resizable=0;points=[];rotation=-90;" connectable="0" vertex="1" parent="y-fFOQFP8YGV1HtrMaNp-22">
          <mxGeometry x="0.015" y="2" relative="1" as="geometry">
            <mxPoint as="offset" />
          </mxGeometry>
        </mxCell>
        <mxCell id="y-fFOQFP8YGV1HtrMaNp-24" style="edgeStyle=orthogonalEdgeStyle;rounded=0;orthogonalLoop=1;jettySize=auto;html=1;exitX=1;exitY=0.5;exitDx=0;exitDy=0;entryX=1;entryY=0.25;entryDx=0;entryDy=0;" edge="1" parent="1" source="Ugqlg0p3zHcgYc9lFQlx-2" target="Ugqlg0p3zHcgYc9lFQlx-9">
          <mxGeometry relative="1" as="geometry">
            <mxPoint x="1260" y="-200" as="targetPoint" />
            <Array as="points">
              <mxPoint x="1090" y="-820" />
              <mxPoint x="1090" y="-290" />
            </Array>
          </mxGeometry>
        </mxCell>
        <mxCell id="y-fFOQFP8YGV1HtrMaNp-25" value="Подстверждение сохранения конфигурации устройства" style="edgeLabel;html=1;align=center;verticalAlign=middle;resizable=0;points=[];rotation=-90;" connectable="0" vertex="1" parent="y-fFOQFP8YGV1HtrMaNp-24">
          <mxGeometry x="-0.0768" y="-2" relative="1" as="geometry">
            <mxPoint as="offset" />
          </mxGeometry>
        </mxCell>
        <mxCell id="2q4z-uAaUhQwx4QoBC5W-5" value="5" style="swimlane;childLayout=stackLayout;horizontal=1;startSize=30;horizontalStack=0;rounded=1;fontSize=14;fontStyle=0;strokeWidth=1;resizeParent=0;resizeLast=1;shadow=0;dashed=0;align=center;fillColor=#FFFFFF;" vertex="1" parent="1">
          <mxGeometry x="-510" y="-680" width="150" height="130" as="geometry" />
        </mxCell>
        <mxCell id="2q4z-uAaUhQwx4QoBC5W-6" value="Управление домом" style="align=center;strokeColor=none;fillColor=none;spacingLeft=4;fontSize=12;verticalAlign=middle;resizable=0;rotatable=0;part=1;" vertex="1" parent="2q4z-uAaUhQwx4QoBC5W-5">
          <mxGeometry y="30" width="150" height="100" as="geometry" />
        </mxCell>
        <mxCell id="2q4z-uAaUhQwx4QoBC5W-13" style="edgeStyle=orthogonalEdgeStyle;rounded=0;orthogonalLoop=1;jettySize=auto;html=1;exitX=0.75;exitY=0;exitDx=0;exitDy=0;entryX=0.919;entryY=1.054;entryDx=0;entryDy=0;entryPerimeter=0;" edge="1" parent="1" source="Ugqlg0p3zHcgYc9lFQlx-5" target="Ugqlg0p3zHcgYc9lFQlx-9">
          <mxGeometry relative="1" as="geometry">
            <Array as="points">
              <mxPoint x="1270" y="-70" />
              <mxPoint x="1270" y="-150" />
              <mxPoint x="921" y="-150" />
            </Array>
          </mxGeometry>
        </mxCell>
        <mxCell id="2q4z-uAaUhQwx4QoBC5W-14" value="Подтверждение Сохраниея/Удаления/Изменения сценария" style="edgeLabel;html=1;align=center;verticalAlign=middle;resizable=0;points=[];" connectable="0" vertex="1" parent="2q4z-uAaUhQwx4QoBC5W-13">
          <mxGeometry x="0.3653" y="-1" relative="1" as="geometry">
            <mxPoint x="-23" as="offset" />
          </mxGeometry>
        </mxCell>
        <mxCell id="2q4z-uAaUhQwx4QoBC5W-15" style="edgeStyle=orthogonalEdgeStyle;rounded=0;orthogonalLoop=1;jettySize=auto;html=1;exitX=0.75;exitY=1;exitDx=0;exitDy=0;entryX=0.1;entryY=0;entryDx=0;entryDy=0;entryPerimeter=0;" edge="1" parent="1" source="2q4z-uAaUhQwx4QoBC5W-6" target="Ugqlg0p3zHcgYc9lFQlx-9">
          <mxGeometry relative="1" as="geometry">
            <Array as="points">
              <mxPoint x="-397" y="-480" />
              <mxPoint x="20" y="-480" />
            </Array>
          </mxGeometry>
        </mxCell>
        <mxCell id="2q4z-uAaUhQwx4QoBC5W-16" value="Подтверждение Создания/Удаления/Изменение дома" style="edgeLabel;html=1;align=center;verticalAlign=middle;resizable=0;points=[];" connectable="0" vertex="1" parent="2q4z-uAaUhQwx4QoBC5W-15">
          <mxGeometry x="-0.4984" relative="1" as="geometry">
            <mxPoint x="122" as="offset" />
          </mxGeometry>
        </mxCell>
        <mxCell id="2q4z-uAaUhQwx4QoBC5W-19" style="edgeStyle=orthogonalEdgeStyle;rounded=0;orthogonalLoop=1;jettySize=auto;html=1;entryX=0.001;entryY=0.591;entryDx=0;entryDy=0;entryPerimeter=0;" edge="1" parent="1" target="Ugqlg0p3zHcgYc9lFQlx-4">
          <mxGeometry relative="1" as="geometry">
            <mxPoint x="-360" y="-670" as="sourcePoint" />
            <Array as="points">
              <mxPoint x="-360" y="-670" />
              <mxPoint x="-150" y="-670" />
            </Array>
          </mxGeometry>
        </mxCell>
        <mxCell id="2q4z-uAaUhQwx4QoBC5W-20" value="Запрос данных об комнатах в доме" style="edgeLabel;html=1;align=center;verticalAlign=middle;resizable=0;points=[];" connectable="0" vertex="1" parent="2q4z-uAaUhQwx4QoBC5W-19">
          <mxGeometry x="0.541" y="-1" relative="1" as="geometry">
            <mxPoint x="-113" as="offset" />
          </mxGeometry>
        </mxCell>
        <mxCell id="2q4z-uAaUhQwx4QoBC5W-21" style="edgeStyle=orthogonalEdgeStyle;rounded=0;orthogonalLoop=1;jettySize=auto;html=1;exitX=0.042;exitY=1.009;exitDx=0;exitDy=0;entryX=1;entryY=0.5;entryDx=0;entryDy=0;exitPerimeter=0;" edge="1" parent="1" source="Ugqlg0p3zHcgYc9lFQlx-4" target="2q4z-uAaUhQwx4QoBC5W-6">
          <mxGeometry relative="1" as="geometry">
            <Array as="points">
              <mxPoint x="60" y="-629" />
              <mxPoint x="60" y="-600" />
            </Array>
          </mxGeometry>
        </mxCell>
        <mxCell id="2q4z-uAaUhQwx4QoBC5W-22" value="Получение данных об комнатах" style="edgeLabel;html=1;align=center;verticalAlign=middle;resizable=0;points=[];" connectable="0" vertex="1" parent="2q4z-uAaUhQwx4QoBC5W-21">
          <mxGeometry x="0.1242" y="-1" relative="1" as="geometry">
            <mxPoint as="offset" />
          </mxGeometry>
        </mxCell>
        <mxCell id="2q4z-uAaUhQwx4QoBC5W-25" style="edgeStyle=orthogonalEdgeStyle;rounded=0;orthogonalLoop=1;jettySize=auto;html=1;exitX=0.5;exitY=0;exitDx=0;exitDy=0;entryX=0;entryY=0.5;entryDx=0;entryDy=0;" edge="1" parent="1" source="2q4z-uAaUhQwx4QoBC5W-24" target="2q4z-uAaUhQwx4QoBC5W-6">
          <mxGeometry relative="1" as="geometry" />
        </mxCell>
        <mxCell id="2q4z-uAaUhQwx4QoBC5W-26" value="Получение данных о домах" style="edgeLabel;html=1;align=center;verticalAlign=middle;resizable=0;points=[];" connectable="0" vertex="1" parent="2q4z-uAaUhQwx4QoBC5W-25">
          <mxGeometry x="0.3358" y="3" relative="1" as="geometry">
            <mxPoint as="offset" />
          </mxGeometry>
        </mxCell>
        <mxCell id="2q4z-uAaUhQwx4QoBC5W-24" value="D5.&amp;nbsp; &amp;nbsp; база домов" style="html=1;dashed=0;whiteSpace=wrap;shape=mxgraph.dfd.dataStoreID;align=left;spacingLeft=3;points=[[0,0],[0.5,0],[1,0],[0,0.5],[1,0.5],[0,1],[0.5,1],[1,1]];" vertex="1" parent="1">
          <mxGeometry x="-770" y="-510" width="180" height="30" as="geometry" />
        </mxCell>
        <mxCell id="2q4z-uAaUhQwx4QoBC5W-27" style="edgeStyle=orthogonalEdgeStyle;rounded=0;orthogonalLoop=1;jettySize=auto;html=1;exitX=0;exitY=0;exitDx=0;exitDy=0;entryX=0.274;entryY=-0.029;entryDx=0;entryDy=0;entryPerimeter=0;" edge="1" parent="1" source="2q4z-uAaUhQwx4QoBC5W-6" target="2q4z-uAaUhQwx4QoBC5W-24">
          <mxGeometry relative="1" as="geometry" />
        </mxCell>
        <mxCell id="2q4z-uAaUhQwx4QoBC5W-28" value="Создание/Удаление/Изменеие данных о домах" style="edgeLabel;html=1;align=center;verticalAlign=middle;resizable=0;points=[];" connectable="0" vertex="1" parent="2q4z-uAaUhQwx4QoBC5W-27">
          <mxGeometry x="-0.2045" relative="1" as="geometry">
            <mxPoint as="offset" />
          </mxGeometry>
        </mxCell>
        <mxCell id="2q4z-uAaUhQwx4QoBC5W-29" style="edgeStyle=orthogonalEdgeStyle;rounded=0;orthogonalLoop=1;jettySize=auto;html=1;exitX=0;exitY=0;exitDx=0;exitDy=0;entryX=0.389;entryY=0;entryDx=0;entryDy=0;entryPerimeter=0;" edge="1" parent="1" source="2q4z-uAaUhQwx4QoBC5W-6" target="2q4z-uAaUhQwx4QoBC5W-24">
          <mxGeometry relative="1" as="geometry">
            <Array as="points">
              <mxPoint x="-510" y="-640" />
              <mxPoint x="-700" y="-640" />
            </Array>
          </mxGeometry>
        </mxCell>
        <mxCell id="2q4z-uAaUhQwx4QoBC5W-30" value="Запрос данных о домах" style="edgeLabel;html=1;align=center;verticalAlign=middle;resizable=0;points=[];" connectable="0" vertex="1" parent="2q4z-uAaUhQwx4QoBC5W-29">
          <mxGeometry x="-0.2053" y="2" relative="1" as="geometry">
            <mxPoint as="offset" />
          </mxGeometry>
        </mxCell>
        <mxCell id="2q4z-uAaUhQwx4QoBC5W-40" style="edgeStyle=orthogonalEdgeStyle;rounded=0;orthogonalLoop=1;jettySize=auto;html=1;exitX=0;exitY=0;exitDx=0;exitDy=0;entryX=1;entryY=0.5;entryDx=0;entryDy=0;" edge="1" parent="1" source="2q4z-uAaUhQwx4QoBC5W-33" target="Ugqlg0p3zHcgYc9lFQlx-6">
          <mxGeometry relative="1" as="geometry" />
        </mxCell>
        <mxCell id="2q4z-uAaUhQwx4QoBC5W-41" value="Получение данных сценария" style="edgeLabel;html=1;align=center;verticalAlign=middle;resizable=0;points=[];" connectable="0" vertex="1" parent="2q4z-uAaUhQwx4QoBC5W-40">
          <mxGeometry x="0.1283" y="-1" relative="1" as="geometry">
            <mxPoint as="offset" />
          </mxGeometry>
        </mxCell>
        <mxCell id="2q4z-uAaUhQwx4QoBC5W-33" value="D4.&amp;nbsp; &amp;nbsp; база сценариев" style="html=1;dashed=0;whiteSpace=wrap;shape=mxgraph.dfd.dataStoreID;align=left;spacingLeft=3;points=[[0,0],[0.5,0],[1,0],[0,0.5],[1,0.5],[0,1],[0.5,1],[1,1]];" vertex="1" parent="1">
          <mxGeometry x="1160" y="40" width="180" height="30" as="geometry" />
        </mxCell>
        <mxCell id="2q4z-uAaUhQwx4QoBC5W-36" style="edgeStyle=orthogonalEdgeStyle;rounded=0;orthogonalLoop=1;jettySize=auto;html=1;exitX=0;exitY=0.25;exitDx=0;exitDy=0;entryX=0.539;entryY=1.051;entryDx=0;entryDy=0;entryPerimeter=0;" edge="1" parent="1" source="Ugqlg0p3zHcgYc9lFQlx-6" target="Ugqlg0p3zHcgYc9lFQlx-9">
          <mxGeometry relative="1" as="geometry" />
        </mxCell>
        <mxCell id="2q4z-uAaUhQwx4QoBC5W-37" value="Получение данных о сценарии" style="edgeLabel;html=1;align=center;verticalAlign=middle;resizable=0;points=[];" connectable="0" vertex="1" parent="2q4z-uAaUhQwx4QoBC5W-36">
          <mxGeometry x="-0.3952" y="2" relative="1" as="geometry">
            <mxPoint as="offset" />
          </mxGeometry>
        </mxCell>
        <mxCell id="2q4z-uAaUhQwx4QoBC5W-38" style="edgeStyle=orthogonalEdgeStyle;rounded=0;orthogonalLoop=1;jettySize=auto;html=1;exitX=1;exitY=0.25;exitDx=0;exitDy=0;entryX=0.5;entryY=0;entryDx=0;entryDy=0;" edge="1" parent="1" source="Ugqlg0p3zHcgYc9lFQlx-6" target="2q4z-uAaUhQwx4QoBC5W-33">
          <mxGeometry relative="1" as="geometry" />
        </mxCell>
        <mxCell id="2q4z-uAaUhQwx4QoBC5W-39" value="Запись данных сценария" style="edgeLabel;html=1;align=center;verticalAlign=middle;resizable=0;points=[];" connectable="0" vertex="1" parent="2q4z-uAaUhQwx4QoBC5W-38">
          <mxGeometry x="-0.1622" y="1" relative="1" as="geometry">
            <mxPoint as="offset" />
          </mxGeometry>
        </mxCell>
        <mxCell id="R25WH0Tf87WVWhgW9tzn-1" style="edgeStyle=orthogonalEdgeStyle;rounded=0;orthogonalLoop=1;jettySize=auto;html=1;exitX=1;exitY=0;exitDx=0;exitDy=0;entryX=1;entryY=0;entryDx=0;entryDy=0;" edge="1" parent="1" source="Ugqlg0p3zHcgYc9lFQlx-6" target="Ugqlg0p3zHcgYc9lFQlx-2">
          <mxGeometry relative="1" as="geometry">
            <Array as="points">
              <mxPoint x="1430" y="-40" />
              <mxPoint x="1430" y="-870" />
            </Array>
          </mxGeometry>
        </mxCell>
        <mxCell id="R25WH0Tf87WVWhgW9tzn-2" value="Отправляет действие для устройства" style="edgeLabel;html=1;align=center;verticalAlign=middle;resizable=0;points=[];rotation=-90;" connectable="0" vertex="1" parent="R25WH0Tf87WVWhgW9tzn-1">
          <mxGeometry x="0.1043" y="1" relative="1" as="geometry">
            <mxPoint as="offset" />
          </mxGeometry>
        </mxCell>
        <mxCell id="R25WH0Tf87WVWhgW9tzn-3" style="edgeStyle=orthogonalEdgeStyle;rounded=0;orthogonalLoop=1;jettySize=auto;html=1;exitX=1;exitY=0.25;exitDx=0;exitDy=0;entryX=1.022;entryY=0.187;entryDx=0;entryDy=0;entryPerimeter=0;" edge="1" parent="1" source="Ugqlg0p3zHcgYc9lFQlx-2" target="Ugqlg0p3zHcgYc9lFQlx-5">
          <mxGeometry relative="1" as="geometry">
            <Array as="points">
              <mxPoint x="1330" y="-845" />
              <mxPoint x="1330" y="-46" />
            </Array>
          </mxGeometry>
        </mxCell>
        <mxCell id="R25WH0Tf87WVWhgW9tzn-4" value="Получает подтверждение о выполнении действия" style="edgeLabel;html=1;align=center;verticalAlign=middle;resizable=0;points=[];rotation=-90;" connectable="0" vertex="1" parent="R25WH0Tf87WVWhgW9tzn-3">
          <mxGeometry x="-0.0148" y="-1" relative="1" as="geometry">
            <mxPoint as="offset" />
          </mxGeometry>
        </mxCell>
      </root>
    </mxGraphModel>
  </diagram>
  <diagram id="8l1wLCM46_UYk4BTRGCP" name="ERD 3НФ">
    <mxGraphModel grid="1" page="1" gridSize="10" guides="1" tooltips="1" connect="1" arrows="1" fold="1" pageScale="1" pageWidth="850" pageHeight="1100" math="0" shadow="0">
      <root>
        <mxCell id="0" />
        <mxCell id="1" parent="0" />
        <mxCell id="o5nXQY_SZSEOsfpJoHC2-15" style="edgeStyle=orthogonalEdgeStyle;rounded=0;orthogonalLoop=1;jettySize=auto;html=1;exitX=0.5;exitY=1;exitDx=0;exitDy=0;entryX=0.5;entryY=0;entryDx=0;entryDy=0;startArrow=ERmandOne;startFill=0;endArrow=ERzeroToMany;endFill=0;startSize=15;endSize=15;" edge="1" parent="1" source="KIC5OsMKsxzvrtqkksKQ-75" target="o5nXQY_SZSEOsfpJoHC2-5">
          <mxGeometry relative="1" as="geometry" />
        </mxCell>
        <mxCell id="o5nXQY_SZSEOsfpJoHC2-16" value="&lt;font style=&quot;font-size: 18px;&quot;&gt;Имеет доступ&lt;/font&gt;" style="edgeLabel;html=1;align=center;verticalAlign=middle;resizable=0;points=[];" connectable="0" vertex="1" parent="o5nXQY_SZSEOsfpJoHC2-15">
          <mxGeometry x="-0.1248" y="-4" relative="1" as="geometry">
            <mxPoint x="14" y="-9" as="offset" />
          </mxGeometry>
        </mxCell>
        <mxCell id="KIC5OsMKsxzvrtqkksKQ-75" value="Пользователь" style="swimlane;childLayout=stackLayout;horizontal=1;startSize=50;horizontalStack=0;rounded=1;fontSize=14;fontStyle=0;strokeWidth=2;resizeParent=0;resizeLast=1;shadow=0;dashed=0;align=center;arcSize=4;whiteSpace=wrap;html=1;fillColor=light-dark(#FFFFFF,transparent);strokeColor=light-dark(#000000,#D5E8D4);" vertex="1" parent="1">
          <mxGeometry x="-760" y="140" width="200" height="120" as="geometry">
            <mxRectangle x="130" y="200" width="100" height="50" as="alternateBounds" />
          </mxGeometry>
        </mxCell>
        <mxCell id="KIC5OsMKsxzvrtqkksKQ-88" value="&lt;font size=&quot;3&quot;&gt;*Email&lt;br&gt;&amp;nbsp; Имя&lt;br&gt;&amp;nbsp; Пароль&lt;/font&gt;" style="text;html=1;align=left;verticalAlign=middle;resizable=0;points=[];autosize=1;strokeColor=none;fillColor=none;" vertex="1" parent="KIC5OsMKsxzvrtqkksKQ-75">
          <mxGeometry y="50" width="200" height="70" as="geometry" />
        </mxCell>
        <mxCell id="KIC5OsMKsxzvrtqkksKQ-77" value="Дом" style="swimlane;childLayout=stackLayout;horizontal=1;startSize=50;horizontalStack=0;rounded=1;fontSize=14;fontStyle=0;strokeWidth=2;resizeParent=0;resizeLast=1;shadow=0;dashed=0;align=center;arcSize=4;whiteSpace=wrap;html=1;" vertex="1" parent="1">
          <mxGeometry x="-260" y="130" width="200" height="150" as="geometry" />
        </mxCell>
        <mxCell id="KIC5OsMKsxzvrtqkksKQ-95" value="* Наименование дома&lt;div&gt;&lt;br&gt;&lt;/div&gt;" style="text;html=1;align=left;verticalAlign=middle;resizable=0;points=[];autosize=1;strokeColor=none;fillColor=none;" vertex="1" parent="KIC5OsMKsxzvrtqkksKQ-77">
          <mxGeometry y="50" width="200" height="100" as="geometry" />
        </mxCell>
        <mxCell id="KIC5OsMKsxzvrtqkksKQ-80" value="Сценарий_устройство" style="swimlane;childLayout=stackLayout;horizontal=1;startSize=50;horizontalStack=0;rounded=1;fontSize=14;fontStyle=0;strokeWidth=2;resizeParent=0;resizeLast=1;shadow=0;dashed=0;align=center;arcSize=4;whiteSpace=wrap;html=1;" vertex="1" parent="1">
          <mxGeometry x="-50" y="1050" width="200" height="160" as="geometry" />
        </mxCell>
        <mxCell id="KIC5OsMKsxzvrtqkksKQ-96" value="&lt;div style=&quot;&quot;&gt;* Название Сценария&lt;/div&gt;&lt;div style=&quot;&quot;&gt;* Серийный номер&lt;/div&gt;&lt;div style=&quot;&quot;&gt;&amp;nbsp;Действие&lt;/div&gt;" style="text;html=1;align=left;verticalAlign=middle;resizable=0;points=[];autosize=1;strokeColor=none;fillColor=none;" vertex="1" parent="KIC5OsMKsxzvrtqkksKQ-80">
          <mxGeometry y="50" width="200" height="110" as="geometry" />
        </mxCell>
        <mxCell id="KIC5OsMKsxzvrtqkksKQ-89" value="&lt;div style=&quot;&quot;&gt;&lt;br&gt;&lt;/div&gt;" style="text;html=1;align=left;verticalAlign=middle;resizable=0;points=[];autosize=1;strokeColor=none;fillColor=none;" vertex="1" parent="1">
          <mxGeometry x="560" y="310" width="200" height="170" as="geometry" />
        </mxCell>
        <mxCell id="KIC5OsMKsxzvrtqkksKQ-94" value="&lt;div style=&quot;&quot;&gt;&lt;br&gt;&lt;/div&gt;" style="text;html=1;align=left;verticalAlign=middle;resizable=0;points=[];autosize=1;strokeColor=none;fillColor=none;" vertex="1" parent="1">
          <mxGeometry x="560" y="310" width="200" height="170" as="geometry" />
        </mxCell>
        <mxCell id="o5nXQY_SZSEOsfpJoHC2-3" value="Сценарий" style="swimlane;childLayout=stackLayout;horizontal=1;startSize=50;horizontalStack=0;rounded=1;fontSize=14;fontStyle=0;strokeWidth=2;resizeParent=0;resizeLast=1;shadow=0;dashed=0;align=center;arcSize=4;whiteSpace=wrap;html=1;" vertex="1" parent="1">
          <mxGeometry x="420" y="760" width="200" height="140" as="geometry" />
        </mxCell>
        <mxCell id="o5nXQY_SZSEOsfpJoHC2-4" value="* Название сценария&lt;div&gt;&amp;nbsp; Время начала&lt;/div&gt;&lt;div&gt;&amp;nbsp; Время завершения&lt;/div&gt;&lt;div&gt;&amp;nbsp; Статус работы устройства&lt;/div&gt;" style="text;html=1;align=left;verticalAlign=middle;resizable=0;points=[];autosize=1;strokeColor=none;fillColor=none;" vertex="1" parent="o5nXQY_SZSEOsfpJoHC2-3">
          <mxGeometry y="50" width="200" height="90" as="geometry" />
        </mxCell>
        <mxCell id="o5nXQY_SZSEOsfpJoHC2-5" value="Дом_пользователя" style="swimlane;childLayout=stackLayout;horizontal=1;startSize=50;horizontalStack=0;rounded=1;fontSize=14;fontStyle=0;strokeWidth=2;resizeParent=0;resizeLast=1;shadow=0;dashed=0;align=center;arcSize=4;whiteSpace=wrap;html=1;" vertex="1" parent="1">
          <mxGeometry x="-530" y="490" width="200" height="150" as="geometry" />
        </mxCell>
        <mxCell id="o5nXQY_SZSEOsfpJoHC2-6" value="&lt;div style=&quot;&quot;&gt;* Email&lt;br&gt;* Наименование дома&lt;/div&gt;" style="text;html=1;align=left;verticalAlign=middle;resizable=0;points=[];autosize=1;strokeColor=none;fillColor=none;" vertex="1" parent="o5nXQY_SZSEOsfpJoHC2-5">
          <mxGeometry y="50" width="200" height="100" as="geometry" />
        </mxCell>
        <mxCell id="o5nXQY_SZSEOsfpJoHC2-9" value="Устройство" style="swimlane;childLayout=stackLayout;horizontal=1;startSize=50;horizontalStack=0;rounded=1;fontSize=14;fontStyle=0;strokeWidth=2;resizeParent=0;resizeLast=1;shadow=0;dashed=0;align=center;arcSize=4;whiteSpace=wrap;html=1;" vertex="1" parent="1">
          <mxGeometry x="-80" y="680" width="200" height="150" as="geometry" />
        </mxCell>
        <mxCell id="o5nXQY_SZSEOsfpJoHC2-10" value="&lt;div style=&quot;&quot;&gt;* Серийный номер&lt;/div&gt;&lt;div style=&quot;&quot;&gt;* Наименование дома&lt;/div&gt;&lt;div style=&quot;&quot;&gt;* Наименование комнаты&lt;br&gt;&amp;nbsp; Тип&lt;/div&gt;&lt;div style=&quot;&quot;&gt;&amp;nbsp; Статус&lt;/div&gt;&lt;div style=&quot;&quot;&gt;&amp;nbsp; Режим энергосбережения&lt;/div&gt;" style="text;html=1;align=left;verticalAlign=middle;resizable=0;points=[];autosize=1;strokeColor=none;fillColor=none;" vertex="1" parent="o5nXQY_SZSEOsfpJoHC2-9">
          <mxGeometry y="50" width="200" height="100" as="geometry" />
        </mxCell>
        <mxCell id="o5nXQY_SZSEOsfpJoHC2-11" value="День_недели" style="swimlane;childLayout=stackLayout;horizontal=1;startSize=50;horizontalStack=0;rounded=1;fontSize=14;fontStyle=0;strokeWidth=2;resizeParent=0;resizeLast=1;shadow=0;dashed=0;align=center;arcSize=4;whiteSpace=wrap;html=1;" vertex="1" parent="1">
          <mxGeometry x="790" y="750" width="200" height="170" as="geometry" />
        </mxCell>
        <mxCell id="o5nXQY_SZSEOsfpJoHC2-12" value="&lt;div style=&quot;&quot;&gt;* Название дня&lt;/div&gt;" style="text;html=1;align=left;verticalAlign=middle;resizable=0;points=[];autosize=1;strokeColor=none;fillColor=none;" vertex="1" parent="o5nXQY_SZSEOsfpJoHC2-11">
          <mxGeometry y="50" width="200" height="120" as="geometry" />
        </mxCell>
        <mxCell id="6DNCFcAgNN-opJwH0Hj6-1" style="edgeStyle=orthogonalEdgeStyle;rounded=0;orthogonalLoop=1;jettySize=auto;html=1;exitX=1;exitY=0.25;exitDx=0;exitDy=0;entryX=0.25;entryY=0;entryDx=0;entryDy=0;startArrow=ERmandOne;startFill=0;endArrow=ERzeroToMany;endFill=0;" edge="1" parent="1" source="o5nXQY_SZSEOsfpJoHC2-13" target="o5nXQY_SZSEOsfpJoHC2-3">
          <mxGeometry relative="1" as="geometry" />
        </mxCell>
        <mxCell id="6DNCFcAgNN-opJwH0Hj6-2" value="&lt;font style=&quot;font-size: 18px;&quot;&gt;имеет&lt;/font&gt;" style="edgeLabel;html=1;align=center;verticalAlign=middle;resizable=0;points=[];" connectable="0" vertex="1" parent="6DNCFcAgNN-opJwH0Hj6-1">
          <mxGeometry x="0.0067" y="-4" relative="1" as="geometry">
            <mxPoint as="offset" />
          </mxGeometry>
        </mxCell>
        <mxCell id="o5nXQY_SZSEOsfpJoHC2-13" value="Комната" style="swimlane;childLayout=stackLayout;horizontal=1;startSize=50;horizontalStack=0;rounded=1;fontSize=14;fontStyle=0;strokeWidth=2;resizeParent=0;resizeLast=1;shadow=0;dashed=0;align=center;arcSize=4;whiteSpace=wrap;html=1;" vertex="1" parent="1">
          <mxGeometry x="190" y="470" width="220" height="140" as="geometry" />
        </mxCell>
        <mxCell id="o5nXQY_SZSEOsfpJoHC2-14" value="&lt;div style=&quot;&quot;&gt;&lt;font size=&quot;3&quot;&gt;* Наименование комнаты&lt;/font&gt;&lt;/div&gt;&lt;div style=&quot;&quot;&gt;&lt;font size=&quot;3&quot;&gt;&amp;nbsp; Тип комнаты&lt;/font&gt;&lt;/div&gt;" style="text;html=1;align=left;verticalAlign=middle;resizable=0;points=[];autosize=1;strokeColor=none;fillColor=none;" vertex="1" parent="o5nXQY_SZSEOsfpJoHC2-13">
          <mxGeometry y="50" width="220" height="90" as="geometry" />
        </mxCell>
        <mxCell id="o5nXQY_SZSEOsfpJoHC2-17" style="edgeStyle=orthogonalEdgeStyle;rounded=0;orthogonalLoop=1;jettySize=auto;html=1;exitX=0.011;exitY=0.283;exitDx=0;exitDy=0;entryX=0.823;entryY=-0.002;entryDx=0;entryDy=0;entryPerimeter=0;exitPerimeter=0;startSize=15;endSize=15;startArrow=ERmandOne;startFill=0;endArrow=ERzeroToMany;endFill=0;" edge="1" parent="1" source="KIC5OsMKsxzvrtqkksKQ-95" target="o5nXQY_SZSEOsfpJoHC2-5">
          <mxGeometry relative="1" as="geometry" />
        </mxCell>
        <mxCell id="o5nXQY_SZSEOsfpJoHC2-18" value="&lt;font style=&quot;font-size: 18px;&quot;&gt;управляет&lt;/font&gt;" style="edgeLabel;html=1;align=center;verticalAlign=middle;resizable=0;points=[];rotation=0;" connectable="0" vertex="1" parent="o5nXQY_SZSEOsfpJoHC2-17">
          <mxGeometry x="0.1853" y="1" relative="1" as="geometry">
            <mxPoint x="-6" as="offset" />
          </mxGeometry>
        </mxCell>
        <mxCell id="pxTjT9fyvSS6XO6v2FVu-2" value="Сценарий_день_недели" style="swimlane;childLayout=stackLayout;horizontal=1;startSize=50;horizontalStack=0;rounded=1;fontSize=14;fontStyle=0;strokeWidth=2;resizeParent=0;resizeLast=1;shadow=0;dashed=0;align=center;arcSize=4;whiteSpace=wrap;html=1;" vertex="1" parent="1">
          <mxGeometry x="590" y="1070" width="200" height="170" as="geometry" />
        </mxCell>
        <mxCell id="pxTjT9fyvSS6XO6v2FVu-3" value="&lt;div style=&quot;&quot;&gt;* Название сценария&lt;/div&gt;&lt;div style=&quot;&quot;&gt;* Название дня&lt;/div&gt;" style="text;html=1;align=left;verticalAlign=middle;resizable=0;points=[];autosize=1;strokeColor=none;fillColor=none;" vertex="1" parent="pxTjT9fyvSS6XO6v2FVu-2">
          <mxGeometry y="50" width="200" height="120" as="geometry" />
        </mxCell>
        <mxCell id="pxTjT9fyvSS6XO6v2FVu-4" style="edgeStyle=orthogonalEdgeStyle;rounded=0;orthogonalLoop=1;jettySize=auto;html=1;exitX=0.594;exitY=0.997;exitDx=0;exitDy=0;entryX=-0.006;entryY=0.33;entryDx=0;entryDy=0;entryPerimeter=0;exitPerimeter=0;startSize=15;endSize=15;startArrow=ERmandOne;startFill=0;endArrow=ERzeroToMany;endFill=0;" edge="1" parent="1" source="KIC5OsMKsxzvrtqkksKQ-95" target="o5nXQY_SZSEOsfpJoHC2-10">
          <mxGeometry relative="1" as="geometry">
            <mxPoint x="-3" y="540" as="sourcePoint" />
            <mxPoint x="-110" y="822" as="targetPoint" />
            <Array as="points">
              <mxPoint x="-141" y="763" />
            </Array>
          </mxGeometry>
        </mxCell>
        <mxCell id="pxTjT9fyvSS6XO6v2FVu-5" value="&lt;font style=&quot;font-size: 18px;&quot;&gt;содержит&lt;/font&gt;" style="edgeLabel;html=1;align=center;verticalAlign=middle;resizable=0;points=[];rotation=0;" connectable="0" vertex="1" parent="pxTjT9fyvSS6XO6v2FVu-4">
          <mxGeometry x="0.1853" y="1" relative="1" as="geometry">
            <mxPoint y="-102" as="offset" />
          </mxGeometry>
        </mxCell>
        <mxCell id="pxTjT9fyvSS6XO6v2FVu-6" style="edgeStyle=orthogonalEdgeStyle;rounded=0;orthogonalLoop=1;jettySize=auto;html=1;entryX=0.434;entryY=-0.01;entryDx=0;entryDy=0;entryPerimeter=0;startSize=15;endSize=15;startArrow=ERmandOne;startFill=0;endArrow=ERzeroToMany;endFill=0;exitX=1.005;exitY=0.741;exitDx=0;exitDy=0;exitPerimeter=0;" edge="1" parent="1" source="KIC5OsMKsxzvrtqkksKQ-95" target="o5nXQY_SZSEOsfpJoHC2-13">
          <mxGeometry relative="1" as="geometry">
            <mxPoint x="170" y="130" as="sourcePoint" />
            <mxPoint x="130" y="472" as="targetPoint" />
          </mxGeometry>
        </mxCell>
        <mxCell id="pxTjT9fyvSS6XO6v2FVu-7" value="&lt;font style=&quot;font-size: 18px;&quot;&gt;имеет&lt;/font&gt;" style="edgeLabel;html=1;align=center;verticalAlign=middle;resizable=0;points=[];" connectable="0" vertex="1" parent="pxTjT9fyvSS6XO6v2FVu-6">
          <mxGeometry x="0.1853" y="1" relative="1" as="geometry">
            <mxPoint x="-172" as="offset" />
          </mxGeometry>
        </mxCell>
        <mxCell id="pxTjT9fyvSS6XO6v2FVu-8" style="edgeStyle=orthogonalEdgeStyle;rounded=0;orthogonalLoop=1;jettySize=auto;html=1;startSize=15;endSize=15;startArrow=ERmandOne;startFill=0;endArrow=ERzeroToMany;endFill=0;entryX=0.616;entryY=-0.026;entryDx=0;entryDy=0;entryPerimeter=0;" edge="1" parent="1" target="o5nXQY_SZSEOsfpJoHC2-3">
          <mxGeometry relative="1" as="geometry">
            <mxPoint x="-60" y="180" as="sourcePoint" />
            <mxPoint x="560" y="630" as="targetPoint" />
          </mxGeometry>
        </mxCell>
        <mxCell id="pxTjT9fyvSS6XO6v2FVu-9" value="&lt;font style=&quot;font-size: 18px;&quot;&gt;имеет&lt;/font&gt;" style="edgeLabel;html=1;align=center;verticalAlign=middle;resizable=0;points=[];" connectable="0" vertex="1" parent="pxTjT9fyvSS6XO6v2FVu-8">
          <mxGeometry x="0.1853" y="1" relative="1" as="geometry">
            <mxPoint x="-234" y="-96" as="offset" />
          </mxGeometry>
        </mxCell>
        <mxCell id="pxTjT9fyvSS6XO6v2FVu-10" style="edgeStyle=orthogonalEdgeStyle;rounded=0;orthogonalLoop=1;jettySize=auto;html=1;startSize=15;endSize=15;startArrow=ERmandOne;startFill=0;endArrow=ERzeroToMany;endFill=0;exitX=0.434;exitY=1.021;exitDx=0;exitDy=0;exitPerimeter=0;" edge="1" parent="1" source="o5nXQY_SZSEOsfpJoHC2-14" target="o5nXQY_SZSEOsfpJoHC2-10">
          <mxGeometry relative="1" as="geometry">
            <mxPoint x="40" y="450" as="sourcePoint" />
            <mxPoint x="384" y="665" as="targetPoint" />
            <Array as="points">
              <mxPoint x="286" y="770" />
            </Array>
          </mxGeometry>
        </mxCell>
        <mxCell id="pxTjT9fyvSS6XO6v2FVu-11" value="&lt;font style=&quot;font-size: 18px;&quot;&gt;может включать&lt;br&gt;(опционально)&lt;/font&gt;" style="edgeLabel;html=1;align=center;verticalAlign=middle;resizable=0;points=[];" connectable="0" vertex="1" parent="pxTjT9fyvSS6XO6v2FVu-10">
          <mxGeometry x="0.1853" y="1" relative="1" as="geometry">
            <mxPoint as="offset" />
          </mxGeometry>
        </mxCell>
        <mxCell id="pxTjT9fyvSS6XO6v2FVu-12" style="edgeStyle=orthogonalEdgeStyle;rounded=0;orthogonalLoop=1;jettySize=auto;html=1;entryX=1;entryY=0.417;entryDx=0;entryDy=0;entryPerimeter=0;startSize=15;endSize=15;startArrow=ERmandOne;startFill=0;endArrow=ERzeroToMany;endFill=0;exitX=0.649;exitY=1.006;exitDx=0;exitDy=0;exitPerimeter=0;" edge="1" parent="1" source="o5nXQY_SZSEOsfpJoHC2-12" target="pxTjT9fyvSS6XO6v2FVu-3">
          <mxGeometry relative="1" as="geometry">
            <mxPoint x="930" y="970" as="sourcePoint" />
            <mxPoint x="1274" y="1185" as="targetPoint" />
          </mxGeometry>
        </mxCell>
        <mxCell id="pxTjT9fyvSS6XO6v2FVu-15" value="&lt;font style=&quot;font-size: 18px;&quot;&gt;используется&lt;/font&gt;" style="edgeLabel;html=1;align=center;verticalAlign=middle;resizable=0;points=[];rotation=0;" connectable="0" vertex="1" parent="1">
          <mxGeometry x="890" y="1070" as="geometry">
            <mxPoint x="27" y="-13" as="offset" />
          </mxGeometry>
        </mxCell>
        <mxCell id="pxTjT9fyvSS6XO6v2FVu-16" style="edgeStyle=orthogonalEdgeStyle;rounded=0;orthogonalLoop=1;jettySize=auto;html=1;entryX=0.005;entryY=0.534;entryDx=0;entryDy=0;entryPerimeter=0;startSize=15;endSize=15;startArrow=ERmandOne;startFill=0;endArrow=ERzeroToMany;endFill=0;exitX=0.488;exitY=0.996;exitDx=0;exitDy=0;exitPerimeter=0;" edge="1" parent="1" source="o5nXQY_SZSEOsfpJoHC2-4" target="pxTjT9fyvSS6XO6v2FVu-3">
          <mxGeometry relative="1" as="geometry">
            <mxPoint x="650" y="950" as="sourcePoint" />
            <mxPoint x="520" y="1199" as="targetPoint" />
          </mxGeometry>
        </mxCell>
        <mxCell id="pxTjT9fyvSS6XO6v2FVu-17" value="&lt;font style=&quot;font-size: 18px;&quot;&gt;запланирован&lt;/font&gt;" style="edgeLabel;html=1;align=center;verticalAlign=middle;resizable=0;points=[];rotation=0;" connectable="0" vertex="1" parent="1">
          <mxGeometry x="493" y="1033" as="geometry">
            <mxPoint x="27" y="-13" as="offset" />
          </mxGeometry>
        </mxCell>
        <mxCell id="pxTjT9fyvSS6XO6v2FVu-18" style="edgeStyle=orthogonalEdgeStyle;rounded=0;orthogonalLoop=1;jettySize=auto;html=1;entryX=1.005;entryY=0.654;entryDx=0;entryDy=0;entryPerimeter=0;startSize=15;endSize=15;startArrow=ERmandOne;startFill=0;endArrow=ERzeroToMany;endFill=0;exitX=0.172;exitY=1.009;exitDx=0;exitDy=0;exitPerimeter=0;" edge="1" parent="1" source="o5nXQY_SZSEOsfpJoHC2-4" target="KIC5OsMKsxzvrtqkksKQ-96">
          <mxGeometry relative="1" as="geometry">
            <mxPoint x="380" y="930" as="sourcePoint" />
            <mxPoint x="453" y="1214" as="targetPoint" />
            <Array as="points">
              <mxPoint x="454" y="1172" />
            </Array>
          </mxGeometry>
        </mxCell>
        <mxCell id="pxTjT9fyvSS6XO6v2FVu-19" value="&lt;font style=&quot;font-size: 18px;&quot;&gt;управляет&lt;/font&gt;" style="edgeLabel;html=1;align=center;verticalAlign=middle;resizable=0;points=[];rotation=0;" connectable="0" vertex="1" parent="1">
          <mxGeometry x="253" y="1183" as="geometry">
            <mxPoint x="27" y="-13" as="offset" />
          </mxGeometry>
        </mxCell>
        <mxCell id="pxTjT9fyvSS6XO6v2FVu-20" style="edgeStyle=orthogonalEdgeStyle;rounded=0;orthogonalLoop=1;jettySize=auto;html=1;startSize=15;endSize=15;startArrow=ERmandOne;startFill=0;endArrow=ERzeroToMany;endFill=0;exitX=0.594;exitY=1.041;exitDx=0;exitDy=0;exitPerimeter=0;entryX=-0.023;entryY=0.28;entryDx=0;entryDy=0;entryPerimeter=0;" edge="1" parent="1" source="o5nXQY_SZSEOsfpJoHC2-10" target="KIC5OsMKsxzvrtqkksKQ-96">
          <mxGeometry relative="1" as="geometry">
            <mxPoint x="35" y="910" as="sourcePoint" />
            <mxPoint x="-130" y="1068" as="targetPoint" />
            <Array as="points">
              <mxPoint x="39" y="870" />
              <mxPoint x="36" y="870" />
              <mxPoint x="36" y="950" />
              <mxPoint x="-250" y="950" />
              <mxPoint x="-250" y="1131" />
            </Array>
          </mxGeometry>
        </mxCell>
        <mxCell id="pxTjT9fyvSS6XO6v2FVu-21" value="&lt;span style=&quot;font-size: 18px;&quot;&gt;исполняет&lt;/span&gt;" style="edgeLabel;html=1;align=center;verticalAlign=middle;resizable=0;points=[];" connectable="0" vertex="1" parent="pxTjT9fyvSS6XO6v2FVu-20">
          <mxGeometry x="0.1853" y="1" relative="1" as="geometry">
            <mxPoint as="offset" />
          </mxGeometry>
        </mxCell>
      </root>
    </mxGraphModel>
  </diagram>
</mxfile>
